# 3ds Max Wavefront OBJ Exporter v0.97b - (c)2007 guruware
# File Created: 22.01.2015 22:51:24

#
# object Cactus
#

v  3.0000 0.0000 -0.0000
v  2.4271 0.0000 -1.7634
v  2.2884 27.0000 -1.6626
v  2.8287 27.0000 0.0000
v  0.9271 0.0000 -2.8532
v  0.8741 27.0000 -2.6902
v  -0.9271 0.0000 -2.8532
v  -0.8741 27.0000 -2.6902
v  -2.4271 0.0000 -1.7634
v  -2.2884 27.0000 -1.6626
v  -3.0000 0.0000 0.0000
v  -2.8287 27.0000 0.0000
v  -2.4271 0.0000 1.7634
v  -2.2884 27.0000 1.6626
v  -0.9271 0.0000 2.8532
v  -0.8741 27.0000 2.6902
v  0.9271 0.0000 2.8532
v  0.8741 27.0000 2.6902
v  2.4271 0.0000 1.7634
v  2.2884 27.0000 1.6626
v  2.0345 28.0000 -1.4781
v  2.5148 28.0000 -0.0000
v  0.7771 28.0000 -2.3917
v  -0.7771 28.0000 -2.3917
v  -2.0345 28.0000 -1.4781
v  -2.5148 28.0000 0.0000
v  -2.0345 28.0000 1.4781
v  -0.7771 28.0000 2.3917
v  0.7771 28.0000 2.3917
v  2.0345 28.0000 1.4781
v  1.5533 29.0000 -1.1286
v  1.9200 29.0000 -0.0000
v  0.5933 29.0000 -1.8260
v  -0.5933 29.0000 -1.8260
v  -1.5533 29.0000 -1.1286
v  -1.9200 29.0000 0.0000
v  -1.5533 29.0000 1.1286
v  -0.5933 29.0000 1.8260
v  0.5933 29.0000 1.8260
v  1.5533 29.0000 1.1286
v  0.4282 30.0000 -0.3111
v  0.5293 30.0000 -0.0000
v  0.1636 30.0000 -0.5034
v  -0.1636 30.0000 -0.5034
v  -0.4282 30.0000 -0.3111
v  -0.5293 30.0000 0.0000
v  -0.4282 30.0000 0.3111
v  -0.1636 30.0000 0.5034
v  0.1636 30.0000 0.5034
v  0.4282 30.0000 0.3111
v  -0.1139 10.7914 0.0000
v  -0.1139 11.3772 -1.4142
v  4.8337 12.4398 -1.4142
v  5.0743 11.9057 -0.0000
v  -0.1139 12.7914 -2.0000
v  4.2530 13.7293 -2.0000
v  -0.1139 14.2057 -1.4142
v  3.6724 15.0188 -1.4142
v  -0.1139 14.7914 0.0000
v  3.4318 15.5530 -0.0000
v  -0.1139 14.2057 1.4142
v  3.6724 15.0188 1.4142
v  -0.1139 12.7914 2.0000
v  4.2530 13.7293 2.0000
v  -0.1139 11.3772 1.4142
v  4.8337 12.4398 1.4142
v  8.9087 15.4402 -1.4142
v  9.3473 15.0520 -0.0000
v  7.8498 16.3776 -2.0000
v  6.7908 17.3149 -1.4142
v  6.3522 17.7032 -0.0000
v  6.7908 17.3149 1.4142
v  7.8498 16.3776 2.0000
v  8.9087 15.4402 1.4142
v  11.5955 21.1985 -1.2842
v  12.1181 21.0991 -0.0000
v  10.3340 21.4386 -1.8161
v  9.0725 21.6787 -1.2842
v  8.5499 21.7781 -0.0000
v  9.0725 21.6787 1.2842
v  10.3340 21.4386 1.8161
v  11.5955 21.1985 1.2842
v  11.4570 22.3357 -0.9869
v  11.8640 22.2973 -0.0000
v  10.4745 22.4283 -1.3957
v  9.4920 22.5210 -0.9869
v  9.0850 22.5593 -0.0000
v  9.4920 22.5210 0.9869
v  10.4745 22.4283 1.3957
v  11.4570 22.3357 0.9869
v  10.9173 23.4268 -0.3958
v  11.0813 23.4268 -0.0000
v  10.5215 23.4268 -0.5598
v  10.1257 23.4268 -0.3958
v  9.9617 23.4268 -0.0000
v  10.1257 23.4268 0.3958
v  10.5215 23.4268 0.5598
v  10.9173 23.4268 0.3958
v  -0.2089 16.6332 -0.0000
v  -0.2089 17.1018 1.1314
v  -4.1670 17.9519 1.1314
v  -4.3594 17.5246 0.0000
v  -0.2089 18.2332 1.6000
v  -3.7024 18.9835 1.6000
v  -0.2089 19.3645 1.1314
v  -3.2379 20.0151 1.1314
v  -0.2089 19.8332 -0.0000
v  -3.0455 20.4424 0.0000
v  -0.2089 19.3645 -1.1314
v  -3.2379 20.0151 -1.1314
v  -0.2089 18.2332 -1.6000
v  -3.7024 18.9835 -1.6000
v  -0.2089 17.1018 -1.1314
v  -4.1670 17.9519 -1.1314
v  -7.4270 20.3522 1.1314
v  -7.7779 20.0416 0.0000
v  -6.5798 21.1021 1.6000
v  -5.7327 21.8520 1.1314
v  -5.3818 22.1626 0.0000
v  -5.7327 21.8520 -1.1314
v  -6.5798 21.1021 -1.6000
v  -7.4270 20.3522 -1.1314
v  -9.5764 24.9588 1.0273
v  -9.9945 24.8793 0.0000
v  -8.5672 25.1509 1.4529
v  -7.5580 25.3429 1.0273
v  -7.1400 25.4225 0.0000
v  -7.5580 25.3429 -1.0273
v  -8.5672 25.1509 -1.4529
v  -9.5764 24.9588 -1.0273
v  -9.4656 25.8685 0.7895
v  -9.7912 25.8378 0.0000
v  -8.6796 25.9426 1.1165
v  -7.8936 26.0168 0.7895
v  -7.5680 26.0475 0.0000
v  -7.8936 26.0168 -0.7895
v  -8.6796 25.9426 -1.1165
v  -9.4656 25.8685 -0.7895
v  -9.0339 26.7415 0.3167
v  -9.1650 26.7415 0.0000
v  -8.7172 26.7415 0.4478
v  -8.4005 26.7415 0.3167
v  -8.2694 26.7415 0.0000
v  -8.4005 26.7415 -0.3167
v  -8.7172 26.7415 -0.4478
v  -9.0339 26.7415 -0.3167
# 146 vertices

vn 1.0000 0.0063 -0.0000
vn 0.8090 0.0063 -0.5878
vn 0.7998 0.1504 -0.5811
vn 0.9886 0.1504 -0.0000
vn 0.3090 0.0063 -0.9510
vn 0.3055 0.1504 -0.9402
vn -0.3090 0.0063 -0.9510
vn -0.3055 0.1504 -0.9402
vn -0.8090 0.0063 -0.5878
vn -0.7998 0.1504 -0.5811
vn -1.0000 0.0063 0.0000
vn -0.9886 0.1504 0.0000
vn -0.8090 0.0063 0.5878
vn -0.7998 0.1504 0.5811
vn -0.3090 0.0063 0.9510
vn -0.3055 0.1504 0.9402
vn 0.3090 0.0063 0.9510
vn 0.3055 0.1504 0.9402
vn 0.8090 0.0063 0.5878
vn 0.7998 0.1504 0.5811
vn 0.7415 0.3998 -0.5388
vn 0.9166 0.3998 -0.0000
vn 0.2832 0.3998 -0.8717
vn -0.2832 0.3998 -0.8717
vn -0.7415 0.3998 -0.5388
vn -0.9166 0.3998 0.0000
vn -0.7415 0.3998 0.5388
vn -0.2832 0.3998 0.8717
vn 0.2832 0.3998 0.8717
vn 0.7415 0.3998 0.5388
vn 0.6105 0.6562 -0.4435
vn 0.7546 0.6562 -0.0000
vn 0.2332 0.6562 -0.7176
vn -0.2332 0.6562 -0.7176
vn -0.6105 0.6562 -0.4435
vn -0.7546 0.6562 0.0000
vn -0.6105 0.6562 0.4435
vn -0.2332 0.6562 0.7176
vn 0.2332 0.6562 0.7176
vn 0.6105 0.6562 0.4435
vn 0.4723 0.8119 -0.3432
vn 0.5838 0.8119 0.0000
vn 0.1804 0.8119 -0.5552
vn -0.1804 0.8119 -0.5552
vn -0.4723 0.8119 -0.3432
vn -0.5838 0.8119 -0.0000
vn -0.4723 0.8119 0.3432
vn -0.1804 0.8119 0.5552
vn 0.1804 0.8119 0.5552
vn 0.4723 0.8119 0.3432
vn 0.0000 1.0000 -0.0000
vn 0.2100 -0.9777 0.0000
vn 0.1551 -0.7222 -0.6741
vn 0.3002 -0.6666 -0.6823
vn 0.4106 -0.9118 0.0000
vn 0.0110 -0.0514 -0.9986
vn 0.0211 -0.0469 -0.9987
vn -0.1444 0.6724 -0.7260
vn -0.2790 0.6196 -0.7337
vn -0.2100 0.9777 0.0000
vn -0.4106 0.9118 -0.0000
vn -0.1444 0.6724 0.7260
vn -0.2790 0.6196 0.7337
vn 0.0110 -0.0514 0.9986
vn 0.0211 -0.0469 0.9987
vn 0.1551 -0.7222 0.6741
vn 0.3002 -0.6666 0.6823
vn 0.5722 -0.4593 -0.6794
vn 0.7744 -0.6327 -0.0002
vn 0.0565 -0.0225 -0.9981
vn -0.5060 0.4481 -0.7370
vn -0.7555 0.6551 -0.0004
vn -0.5072 0.4471 0.7368
vn 0.0555 -0.0238 0.9982
vn 0.5718 -0.4601 0.6792
vn 0.7267 -0.0280 -0.6864
vn 0.9935 -0.1139 -0.0014
vn 0.0732 0.1891 -0.9792
vn -0.5858 0.4191 -0.6937
vn -0.8573 0.5148 -0.0020
vn -0.5893 0.4156 0.6929
vn 0.0724 0.1836 0.9803
vn 0.7277 -0.0319 0.6851
vn 0.6689 0.4135 -0.6177
vn 0.9255 0.3787 -0.0027
vn 0.0599 0.4998 -0.8641
vn -0.5353 0.5890 -0.6054
vn -0.7782 0.6280 -0.0039
vn -0.5375 0.5919 0.6007
vn 0.0606 0.5027 0.8623
vn 0.6714 0.4149 0.6141
vn 0.5814 0.5866 -0.5639
vn 0.8190 0.5737 -0.0055
vn 0.0235 0.6310 -0.7754
vn -0.5026 0.6806 -0.5331
vn -0.7074 0.7068 -0.0069
vn -0.4997 0.6948 0.5172
vn 0.0239 0.6510 0.7587
vn 0.5799 0.6005 0.5506
vn -0.0000 1.0000 -0.0000
vn -0.0000 1.0000 0.0000
vn 0.0000 1.0000 0.0000
vn -0.2100 -0.9777 0.0000
vn -0.1551 -0.7222 0.6741
vn -0.3002 -0.6666 0.6823
vn -0.4106 -0.9118 0.0000
vn -0.0110 -0.0514 0.9986
vn -0.0211 -0.0469 0.9987
vn 0.1444 0.6724 0.7260
vn 0.2790 0.6196 0.7337
vn 0.2100 0.9777 -0.0000
vn 0.4106 0.9118 -0.0000
vn 0.1444 0.6724 -0.7260
vn 0.2790 0.6196 -0.7337
vn -0.0110 -0.0514 -0.9986
vn -0.0211 -0.0469 -0.9987
vn -0.1551 -0.7222 -0.6741
vn -0.3002 -0.6666 -0.6823
vn -0.5722 -0.4593 0.6794
vn -0.7744 -0.6327 0.0002
vn -0.0565 -0.0225 0.9981
vn 0.5060 0.4481 0.7370
vn 0.7555 0.6551 0.0004
vn 0.5072 0.4471 -0.7368
vn -0.0555 -0.0238 -0.9982
vn -0.5718 -0.4601 -0.6792
vn -0.7267 -0.0280 0.6864
vn -0.9935 -0.1139 0.0014
vn -0.0732 0.1891 0.9792
vn 0.5858 0.4191 0.6937
vn 0.8573 0.5148 0.0020
vn 0.5893 0.4156 -0.6929
vn -0.0724 0.1836 -0.9803
vn -0.7277 -0.0319 -0.6851
vn -0.6689 0.4135 0.6177
vn -0.9255 0.3787 0.0027
vn -0.0599 0.4998 0.8641
vn 0.5353 0.5890 0.6054
vn 0.7782 0.6280 0.0039
vn 0.5375 0.5919 -0.6007
vn -0.0606 0.5027 -0.8623
vn -0.6714 0.4149 -0.6141
vn -0.5814 0.5866 0.5639
vn -0.8190 0.5737 0.0055
vn -0.0235 0.6310 0.7754
vn 0.5026 0.6806 0.5331
vn 0.7074 0.7068 0.0069
vn 0.4997 0.6948 -0.5172
vn -0.0239 0.6510 -0.7587
vn -0.5799 0.6005 -0.5506
# 150 vertex normals

vt 0.0100 0.4339 0.0000
vt 0.0100 0.3942 0.0000
vt 0.6171 0.3965 0.0000
vt 0.6171 0.4339 0.0000
vt 0.0100 0.2572 0.0000
vt 0.0100 0.2234 0.0000
vt 0.6171 0.2223 0.0000
vt 0.6171 0.2541 0.0000
vt 0.0100 0.1818 0.0000
vt 0.6171 0.1829 0.0000
vt 0.0100 0.1480 0.0000
vt 0.6171 0.1511 0.0000
vt 0.0100 0.3654 0.0000
vt 0.0100 0.3257 0.0000
vt 0.6171 0.3257 0.0000
vt 0.6171 0.3631 0.0000
vt 0.0100 0.2861 0.0000
vt 0.6171 0.2883 0.0000
vt 0.0100 0.1191 0.0000
vt 0.0100 0.0854 0.0000
vt 0.6171 0.0842 0.0000
vt 0.6171 0.1160 0.0000
vt 0.0100 0.0437 0.0000
vt 0.6171 0.0449 0.0000
vt 0.0100 0.0100 0.0000
vt 0.6171 0.0131 0.0000
vt 0.0100 0.4735 0.0000
vt 0.6171 0.4713 0.0000
vt 0.6396 0.4007 0.0000
vt 0.6396 0.4339 0.0000
vt 0.6396 0.2201 0.0000
vt 0.6396 0.2483 0.0000
vt 0.6396 0.1851 0.0000
vt 0.6396 0.1569 0.0000
vt 0.6396 0.3257 0.0000
vt 0.6396 0.3589 0.0000
vt 0.6396 0.2925 0.0000
vt 0.6396 0.0820 0.0000
vt 0.6396 0.1103 0.0000
vt 0.6396 0.0471 0.0000
vt 0.6396 0.0188 0.0000
vt 0.6396 0.4671 0.0000
vt 0.6621 0.4085 0.0000
vt 0.6621 0.4339 0.0000
vt 0.0449 0.9603 0.0000
vt 0.0100 0.9603 0.0000
vt 0.0141 0.9345 0.0000
vt 0.0408 0.9345 0.0000
vt 0.6621 0.1893 0.0000
vt 0.6621 0.2159 0.0000
vt 0.8276 0.5283 0.0000
vt 0.7927 0.5283 0.0000
vt 0.7968 0.5024 0.0000
vt 0.8235 0.5024 0.0000
vt 0.6621 0.3257 0.0000
vt 0.6621 0.3511 0.0000
vt 0.6621 0.3003 0.0000
vt 0.8272 0.6748 0.0000
vt 0.7922 0.6748 0.0000
vt 0.7964 0.6490 0.0000
vt 0.8230 0.6490 0.0000
vt 0.6621 0.0512 0.0000
vt 0.6621 0.0779 0.0000
vt 0.7259 0.4201 0.0000
vt 0.6909 0.4201 0.0000
vt 0.6951 0.3942 0.0000
vt 0.7218 0.3942 0.0000
vt 0.6621 0.4593 0.0000
vt 0.6909 0.0511 0.0000
vt 0.6992 0.0257 0.0000
vt 0.7245 0.0441 0.0000
vt 0.7222 0.0511 0.0000
vt 0.7208 0.0100 0.0000
vt 0.7304 0.0397 0.0000
vt 0.7475 0.0100 0.0000
vt 0.7378 0.0397 0.0000
vt 0.7690 0.0257 0.0000
vt 0.7437 0.0441 0.0000
vt 0.7773 0.0511 0.0000
vt 0.7460 0.0511 0.0000
vt 0.7690 0.0764 0.0000
vt 0.7437 0.0581 0.0000
vt 0.7475 0.0921 0.0000
vt 0.7378 0.0624 0.0000
vt 0.7208 0.0921 0.0000
vt 0.7304 0.0624 0.0000
vt 0.6992 0.0764 0.0000
vt 0.7245 0.0581 0.0000
vt 0.4050 0.6808 0.0000
vt 0.4143 0.6490 0.0000
vt 0.5099 0.6490 0.0000
vt 0.5052 0.6808 0.0000
vt 0.0100 0.6956 0.0000
vt 0.0316 0.6723 0.0000
vt 0.1179 0.7236 0.0000
vt 0.1078 0.7537 0.0000
vt 0.0533 0.6490 0.0000
vt 0.1281 0.6935 0.0000
vt 0.4050 0.8975 0.0000
vt 0.4143 0.8657 0.0000
vt 0.4828 0.8657 0.0000
vt 0.4781 0.8975 0.0000
vt 0.4050 0.8339 0.0000
vt 0.4781 0.8339 0.0000
vt 0.7279 0.5024 0.0000
vt 0.7494 0.5258 0.0000
vt 0.6630 0.5769 0.0000
vt 0.6529 0.5468 0.0000
vt 0.7710 0.5491 0.0000
vt 0.6731 0.6071 0.0000
vt 0.4143 0.7126 0.0000
vt 0.5099 0.7126 0.0000
vt 0.6223 0.6490 0.0000
vt 0.6231 0.6808 0.0000
vt 0.2177 0.7350 0.0000
vt 0.2208 0.7666 0.0000
vt 0.2146 0.7033 0.0000
vt 0.5634 0.8657 0.0000
vt 0.5642 0.8975 0.0000
vt 0.5642 0.8339 0.0000
vt 0.5632 0.5881 0.0000
vt 0.5664 0.5565 0.0000
vt 0.5601 0.6198 0.0000
vt 0.6223 0.7126 0.0000
vt 0.7566 0.6519 0.0000
vt 0.7633 0.6808 0.0000
vt 0.3361 0.6895 0.0000
vt 0.3532 0.7128 0.0000
vt 0.3190 0.6663 0.0000
vt 0.6631 0.8657 0.0000
vt 0.6699 0.8946 0.0000
vt 0.6699 0.8368 0.0000
vt 0.4450 0.5425 0.0000
vt 0.4621 0.5193 0.0000
vt 0.4278 0.5657 0.0000
vt 0.7566 0.7096 0.0000
vt 0.6914 0.3099 0.0000
vt 0.7105 0.2861 0.0000
vt 0.7273 0.2992 0.0000
vt 0.7131 0.3177 0.0000
vt 0.3535 0.6754 0.0000
vt 0.3683 0.6919 0.0000
vt 0.3388 0.6588 0.0000
vt 0.6841 0.8657 0.0000
vt 0.6899 0.8879 0.0000
vt 0.6899 0.8435 0.0000
vt 0.4275 0.5283 0.0000
vt 0.4423 0.5118 0.0000
vt 0.4127 0.5448 0.0000
vt 0.6909 0.3404 0.0000
vt 0.7123 0.3410 0.0000
vt 0.7472 0.3205 0.0000
vt 0.7417 0.3280 0.0000
vt 0.3696 0.6596 0.0000
vt 0.3761 0.6657 0.0000
vt 0.3631 0.6536 0.0000
vt 0.7118 0.8657 0.0000
vt 0.7144 0.8746 0.0000
vt 0.7144 0.8568 0.0000
vt 0.4115 0.5125 0.0000
vt 0.4181 0.5065 0.0000
vt 0.4050 0.5186 0.0000
vt 0.7412 0.3373 0.0000
vt 0.7270 0.8746 0.0000
vt 0.7207 0.8783 0.0000
vt 0.7207 0.8531 0.0000
vt 0.7270 0.8568 0.0000
vt 0.7296 0.8657 0.0000
vt 0.4050 0.7732 0.0000
vt 0.4143 0.7414 0.0000
vt 0.5099 0.7414 0.0000
vt 0.5052 0.7732 0.0000
vt 0.0100 0.5490 0.0000
vt 0.0316 0.5257 0.0000
vt 0.1179 0.5771 0.0000
vt 0.1078 0.6072 0.0000
vt 0.0533 0.5024 0.0000
vt 0.1281 0.5469 0.0000
vt 0.4050 0.9900 0.0000
vt 0.4143 0.9582 0.0000
vt 0.4828 0.9582 0.0000
vt 0.4781 0.9900 0.0000
vt 0.4050 0.9264 0.0000
vt 0.4781 0.9264 0.0000
vt 0.3329 0.7955 0.0000
vt 0.3545 0.8188 0.0000
vt 0.2680 0.8700 0.0000
vt 0.2580 0.8399 0.0000
vt 0.3760 0.8422 0.0000
vt 0.2781 0.9002 0.0000
vt 0.4143 0.8050 0.0000
vt 0.5099 0.8050 0.0000
vt 0.6223 0.7414 0.0000
vt 0.6231 0.7732 0.0000
vt 0.2177 0.5884 0.0000
vt 0.2208 0.6201 0.0000
vt 0.2146 0.5568 0.0000
vt 0.5634 0.9582 0.0000
vt 0.5642 0.9900 0.0000
vt 0.5642 0.9264 0.0000
vt 0.1682 0.8812 0.0000
vt 0.1714 0.8495 0.0000
vt 0.1651 0.9128 0.0000
vt 0.6223 0.8050 0.0000
vt 0.7566 0.7444 0.0000
vt 0.7633 0.7732 0.0000
vt 0.3361 0.5430 0.0000
vt 0.3532 0.5663 0.0000
vt 0.3190 0.5198 0.0000
vt 0.6631 0.9582 0.0000
vt 0.6699 0.9871 0.0000
vt 0.6699 0.9293 0.0000
vt 0.0500 0.8355 0.0000
vt 0.0671 0.8123 0.0000
vt 0.0328 0.8588 0.0000
vt 0.7566 0.8021 0.0000
vt 0.6914 0.1718 0.0000
vt 0.7105 0.1480 0.0000
vt 0.7273 0.1612 0.0000
vt 0.7131 0.1797 0.0000
vt 0.3535 0.5288 0.0000
vt 0.3683 0.5454 0.0000
vt 0.3388 0.5123 0.0000
vt 0.6841 0.9582 0.0000
vt 0.6899 0.9804 0.0000
vt 0.6899 0.9360 0.0000
vt 0.0326 0.8213 0.0000
vt 0.0474 0.8048 0.0000
vt 0.0177 0.8379 0.0000
vt 0.6909 0.2024 0.0000
vt 0.7123 0.2029 0.0000
vt 0.7472 0.1825 0.0000
vt 0.7417 0.1900 0.0000
vt 0.3696 0.5131 0.0000
vt 0.3761 0.5192 0.0000
vt 0.3631 0.5070 0.0000
vt 0.7118 0.9582 0.0000
vt 0.7144 0.9671 0.0000
vt 0.7144 0.9493 0.0000
vt 0.0165 0.8056 0.0000
vt 0.0231 0.7995 0.0000
vt 0.0100 0.8116 0.0000
vt 0.7412 0.1992 0.0000
vt 0.7270 0.9671 0.0000
vt 0.7207 0.9708 0.0000
vt 0.7207 0.9456 0.0000
vt 0.7270 0.9493 0.0000
vt 0.7296 0.9582 0.0000
# 248 texture coords

g Cactus
f 1/1/1 2/2/2 3/3/3 
f 3/3/3 4/4/4 1/1/1 
f 2/5/2 5/6/5 6/7/6 
f 6/7/6 3/8/3 2/5/2 
f 5/6/5 7/9/7 8/10/8 
f 8/10/8 6/7/6 5/6/5 
f 7/9/7 9/11/9 10/12/10 
f 10/12/10 8/10/8 7/9/7 
f 9/13/9 11/14/11 12/15/12 
f 12/15/12 10/16/10 9/13/9 
f 11/14/11 13/17/13 14/18/14 
f 14/18/14 12/15/12 11/14/11 
f 13/19/13 15/20/15 16/21/16 
f 16/21/16 14/22/14 13/19/13 
f 15/20/15 17/23/17 18/24/18 
f 18/24/18 16/21/16 15/20/15 
f 17/23/17 19/25/19 20/26/20 
f 20/26/20 18/24/18 17/23/17 
f 19/27/19 1/1/1 4/4/4 
f 4/4/4 20/28/20 19/27/19 
f 4/4/4 3/3/3 21/29/21 
f 21/29/21 22/30/22 4/4/4 
f 3/8/3 6/7/6 23/31/23 
f 23/31/23 21/32/21 3/8/3 
f 6/7/6 8/10/8 24/33/24 
f 24/33/24 23/31/23 6/7/6 
f 8/10/8 10/12/10 25/34/25 
f 25/34/25 24/33/24 8/10/8 
f 10/16/10 12/15/12 26/35/26 
f 26/35/26 25/36/25 10/16/10 
f 12/15/12 14/18/14 27/37/27 
f 27/37/27 26/35/26 12/15/12 
f 14/22/14 16/21/16 28/38/28 
f 28/38/28 27/39/27 14/22/14 
f 16/21/16 18/24/18 29/40/29 
f 29/40/29 28/38/28 16/21/16 
f 18/24/18 20/26/20 30/41/30 
f 30/41/30 29/40/29 18/24/18 
f 20/28/20 4/4/4 22/30/22 
f 22/30/22 30/42/30 20/28/20 
f 22/30/22 21/29/21 31/43/31 
f 31/43/31 32/44/32 22/30/22 
f 21/45/21 23/46/23 33/47/33 
f 33/47/33 31/48/31 21/45/21 
f 23/31/23 24/33/24 34/49/34 
f 34/49/34 33/50/33 23/31/23 
f 24/51/24 25/52/25 35/53/35 
f 35/53/35 34/54/34 24/51/24 
f 25/36/25 26/35/26 36/55/36 
f 36/55/36 35/56/35 25/36/25 
f 26/35/26 27/37/27 37/57/37 
f 37/57/37 36/55/36 26/35/26 
f 27/58/27 28/59/28 38/60/38 
f 38/60/38 37/61/37 27/58/27 
f 28/38/28 29/40/29 39/62/39 
f 39/62/39 38/63/38 28/38/28 
f 29/64/29 30/65/30 40/66/40 
f 40/66/40 39/67/39 29/64/29 
f 30/42/30 22/30/22 32/44/32 
f 32/44/32 40/68/40 30/42/30 
f 32/69/32 31/70/31 41/71/41 
f 41/71/41 42/72/42 32/69/32 
f 31/70/31 33/73/33 43/74/43 
f 43/74/43 41/71/41 31/70/31 
f 33/73/33 34/75/34 44/76/44 
f 44/76/44 43/74/43 33/73/33 
f 34/75/34 35/77/35 45/78/45 
f 45/78/45 44/76/44 34/75/34 
f 35/77/35 36/79/36 46/80/46 
f 46/80/46 45/78/45 35/77/35 
f 36/79/36 37/81/37 47/82/47 
f 47/82/47 46/80/46 36/79/36 
f 37/81/37 38/83/38 48/84/48 
f 48/84/48 47/82/47 37/81/37 
f 38/83/38 39/85/39 49/86/49 
f 49/86/49 48/84/48 38/83/38 
f 39/85/39 40/87/40 50/88/50 
f 50/88/50 49/86/49 39/85/39 
f 40/87/40 32/69/32 42/72/42 
f 42/72/42 50/88/50 40/87/40 
f 43/74/51 44/76/51 45/78/51 
f 45/78/51 46/80/51 47/82/51 
f 47/82/51 48/84/51 49/86/51 
f 49/86/51 50/88/51 42/72/51 
f 47/82/51 49/86/51 42/72/51 
f 45/78/51 47/82/51 42/72/51 
f 43/74/51 45/78/51 42/72/51 
f 41/71/51 43/74/51 42/72/51 
f 51/89/52 52/90/53 53/91/54 
f 53/91/54 54/92/55 51/89/52 
f 52/93/53 55/94/56 56/95/57 
f 56/95/57 53/96/54 52/93/53 
f 55/94/56 57/97/58 58/98/59 
f 58/98/59 56/95/57 55/94/56 
f 57/99/58 59/100/60 60/101/61 
f 60/101/61 58/102/59 57/99/58 
f 59/100/60 61/103/62 62/104/63 
f 62/104/63 60/101/61 59/100/60 
f 61/105/62 63/106/64 64/107/65 
f 64/107/65 62/108/63 61/105/62 
f 63/106/64 65/109/66 66/110/67 
f 66/110/67 64/107/65 63/106/64 
f 65/111/66 51/89/52 54/92/55 
f 54/92/55 66/112/67 65/111/66 
f 54/92/55 53/91/54 67/113/68 
f 67/113/68 68/114/69 54/92/55 
f 53/96/54 56/95/57 69/115/70 
f 69/115/70 67/116/68 53/96/54 
f 56/95/57 58/98/59 70/117/71 
f 70/117/71 69/115/70 56/95/57 
f 58/102/59 60/101/61 71/118/72 
f 71/118/72 70/119/71 58/102/59 
f 60/101/61 62/104/63 72/120/73 
f 72/120/73 71/118/72 60/101/61 
f 62/108/63 64/107/65 73/121/74 
f 73/121/74 72/122/73 62/108/63 
f 64/107/65 66/110/67 74/123/75 
f 74/123/75 73/121/74 64/107/65 
f 66/112/67 54/92/55 68/114/69 
f 68/114/69 74/124/75 66/112/67 
f 68/114/69 67/113/68 75/125/76 
f 75/125/76 76/126/77 68/114/69 
f 67/116/68 69/115/70 77/127/78 
f 77/127/78 75/128/76 67/116/68 
f 69/115/70 70/117/71 78/129/79 
f 78/129/79 77/127/78 69/115/70 
f 70/119/71 71/118/72 79/130/80 
f 79/130/80 78/131/79 70/119/71 
f 71/118/72 72/120/73 80/132/81 
f 80/132/81 79/130/80 71/118/72 
f 72/122/73 73/121/74 81/133/82 
f 81/133/82 80/134/81 72/122/73 
f 73/121/74 74/123/75 82/135/83 
f 82/135/83 81/133/82 73/121/74 
f 74/124/75 68/114/69 76/126/77 
f 76/126/77 82/136/83 74/124/75 
f 76/137/77 75/138/76 83/139/84 
f 83/139/84 84/140/85 76/137/77 
f 75/128/76 77/127/78 85/141/86 
f 85/141/86 83/142/84 75/128/76 
f 77/127/78 78/129/79 86/143/87 
f 86/143/87 85/141/86 77/127/78 
f 78/131/79 79/130/80 87/144/88 
f 87/144/88 86/145/87 78/131/79 
f 79/130/80 80/132/81 88/146/89 
f 88/146/89 87/144/88 79/130/80 
f 80/134/81 81/133/82 89/147/90 
f 89/147/90 88/148/89 80/134/81 
f 81/133/82 82/135/83 90/149/91 
f 90/149/91 89/147/90 81/133/82 
f 82/150/83 76/137/77 84/140/85 
f 84/140/85 90/151/91 82/150/83 
f 84/140/85 83/139/84 91/152/92 
f 91/152/92 92/153/93 84/140/85 
f 83/142/84 85/141/86 93/154/94 
f 93/154/94 91/155/92 83/142/84 
f 85/141/86 86/143/87 94/156/95 
f 94/156/95 93/154/94 85/141/86 
f 86/145/87 87/144/88 95/157/96 
f 95/157/96 94/158/95 86/145/87 
f 87/144/88 88/146/89 96/159/97 
f 96/159/97 95/157/96 87/144/88 
f 88/148/89 89/147/90 97/160/98 
f 97/160/98 96/161/97 88/148/89 
f 89/147/90 90/149/91 98/162/99 
f 98/162/99 97/160/98 89/147/90 
f 90/151/91 84/140/85 92/153/93 
f 92/153/93 98/163/99 90/151/91 
f 91/164/51 93/165/100 94/158/100 
f 94/158/100 95/157/51 96/159/101 
f 96/159/101 97/166/101 98/167/102 
f 94/158/100 96/159/101 98/167/102 
f 91/164/51 94/158/100 98/167/102 
f 92/168/51 91/164/51 98/167/102 
f 99/169/103 100/170/104 101/171/105 
f 101/171/105 102/172/106 99/169/103 
f 100/173/104 103/174/107 104/175/108 
f 104/175/108 101/176/105 100/173/104 
f 103/174/107 105/177/109 106/178/110 
f 106/178/110 104/175/108 103/174/107 
f 105/179/109 107/180/111 108/181/112 
f 108/181/112 106/182/110 105/179/109 
f 107/180/111 109/183/113 110/184/114 
f 110/184/114 108/181/112 107/180/111 
f 109/185/113 111/186/115 112/187/116 
f 112/187/116 110/188/114 109/185/113 
f 111/186/115 113/189/117 114/190/118 
f 114/190/118 112/187/116 111/186/115 
f 113/191/117 99/169/103 102/172/106 
f 102/172/106 114/192/118 113/191/117 
f 102/172/106 101/171/105 115/193/119 
f 115/193/119 116/194/120 102/172/106 
f 101/176/105 104/175/108 117/195/121 
f 117/195/121 115/196/119 101/176/105 
f 104/175/108 106/178/110 118/197/122 
f 118/197/122 117/195/121 104/175/108 
f 106/182/110 108/181/112 119/198/123 
f 119/198/123 118/199/122 106/182/110 
f 108/181/112 110/184/114 120/200/124 
f 120/200/124 119/198/123 108/181/112 
f 110/188/114 112/187/116 121/201/125 
f 121/201/125 120/202/124 110/188/114 
f 112/187/116 114/190/118 122/203/126 
f 122/203/126 121/201/125 112/187/116 
f 114/192/118 102/172/106 116/194/120 
f 116/194/120 122/204/126 114/192/118 
f 116/194/120 115/193/119 123/205/127 
f 123/205/127 124/206/128 116/194/120 
f 115/196/119 117/195/121 125/207/129 
f 125/207/129 123/208/127 115/196/119 
f 117/195/121 118/197/122 126/209/130 
f 126/209/130 125/207/129 117/195/121 
f 118/199/122 119/198/123 127/210/131 
f 127/210/131 126/211/130 118/199/122 
f 119/198/123 120/200/124 128/212/132 
f 128/212/132 127/210/131 119/198/123 
f 120/202/124 121/201/125 129/213/133 
f 129/213/133 128/214/132 120/202/124 
f 121/201/125 122/203/126 130/215/134 
f 130/215/134 129/213/133 121/201/125 
f 122/204/126 116/194/120 124/206/128 
f 124/206/128 130/216/134 122/204/126 
f 124/217/128 123/218/127 131/219/135 
f 131/219/135 132/220/136 124/217/128 
f 123/208/127 125/207/129 133/221/137 
f 133/221/137 131/222/135 123/208/127 
f 125/207/129 126/209/130 134/223/138 
f 134/223/138 133/221/137 125/207/129 
f 126/211/130 127/210/131 135/224/139 
f 135/224/139 134/225/138 126/211/130 
f 127/210/131 128/212/132 136/226/140 
f 136/226/140 135/224/139 127/210/131 
f 128/214/132 129/213/133 137/227/141 
f 137/227/141 136/228/140 128/214/132 
f 129/213/133 130/215/134 138/229/142 
f 138/229/142 137/227/141 129/213/133 
f 130/230/134 124/217/128 132/220/136 
f 132/220/136 138/231/142 130/230/134 
f 132/220/136 131/219/135 139/232/143 
f 139/232/143 140/233/144 132/220/136 
f 131/222/135 133/221/137 141/234/145 
f 141/234/145 139/235/143 131/222/135 
f 133/221/137 134/223/138 142/236/146 
f 142/236/146 141/234/145 133/221/137 
f 134/225/138 135/224/139 143/237/147 
f 143/237/147 142/238/146 134/225/138 
f 135/224/139 136/226/140 144/239/148 
f 144/239/148 143/237/147 135/224/139 
f 136/228/140 137/227/141 145/240/149 
f 145/240/149 144/241/148 136/228/140 
f 137/227/141 138/229/142 146/242/150 
f 146/242/150 145/240/149 137/227/141 
f 138/231/142 132/220/136 140/233/144 
f 140/233/144 146/243/150 138/231/142 
f 139/244/51 141/245/51 142/238/51 
f 142/238/51 143/237/51 144/239/51 
f 144/239/51 145/246/51 146/247/51 
f 142/238/51 144/239/51 146/247/51 
f 139/244/51 142/238/51 146/247/51 
f 140/248/51 139/244/51 146/247/51 
# 260 faces

