# 3ds Max Wavefront OBJ Exporter v0.97b - (c)2007 guruware
# File Created: 08.12.2014 00:56:12

mtllib house1.mtl

#
# object House1
#

v  17.5193 15.0000 -0.0000
v  11.8065 15.0000 -9.8949
v  2.5953 20.9348 -2.1751
v  3.8510 20.9348 -0.0000
v  -11.8065 15.0000 -9.8949
v  -2.5953 20.9348 -2.1751
v  -17.5193 15.0000 0.0000
v  -3.8510 20.9348 -0.0000
v  -11.8065 15.0000 9.8949
v  -2.5953 20.9348 2.1751
v  11.8065 15.0000 9.8949
v  2.5953 20.9348 2.1751
v  -8.5000 15.0000 -0.0000
v  -9.2500 15.0000 -1.2990
v  -9.2500 25.0000 -1.2990
v  -8.5000 25.0000 -0.0000
v  -10.7500 15.0000 -1.2990
v  -10.7500 25.0000 -1.2990
v  -11.5000 15.0000 0.0000
v  -11.5000 25.0000 0.0000
v  -10.7500 15.0000 1.2990
v  -10.7500 25.0000 1.2990
v  -9.2500 15.0000 1.2990
v  -9.2500 25.0000 1.2990
v  -16.9414 9.9739 3.3115
v  -12.0586 12.0261 0.4924
v  -9.0586 12.0261 5.6885
v  -13.9414 9.9739 8.5076
v  -17.0895 10.4438 3.3970
v  -14.0895 10.4438 8.5931
v  -9.2067 12.4959 5.7740
v  -12.2067 12.4959 0.5779
v  15.3333 0.0000 -0.0000
v  10.3333 0.0000 -8.6603
v  10.3333 15.0000 -8.6603
v  15.3333 15.0000 -0.0000
v  -10.3333 0.0000 -8.6603
v  -10.3333 15.0000 -8.6603
v  -15.3333 0.0000 0.0000
v  -15.3333 15.0000 0.0000
v  -10.3333 0.0000 8.6603
v  -10.3333 15.0000 8.6603
v  10.3333 0.0000 8.6603
v  10.3333 15.0000 8.6603
v  0.0000 11.5000 12.0000
v  -6.0000 8.0000 16.0000
v  6.0000 8.0000 16.0000
v  6.0000 8.0000 8.0000
v  -6.0000 8.0000 8.0000
v  0.0000 8.0000 12.0000
v  -5.5000 0.0000 15.5000
v  -5.5000 0.0000 14.5000
v  -4.5000 0.0000 14.5000
v  -4.5000 0.0000 15.5000
v  -5.5000 8.0000 15.5000
v  -4.5000 8.0000 15.5000
v  -4.5000 8.0000 14.5000
v  -5.5000 8.0000 14.5000
v  4.5000 0.0000 15.5000
v  4.5000 0.0000 14.5000
v  5.5000 0.0000 14.5000
v  5.5000 0.0000 15.5000
v  4.5000 8.0000 15.5000
v  5.5000 8.0000 15.5000
v  5.5000 8.0000 14.5000
v  4.5000 8.0000 14.5000
v  13.9414 9.9739 8.5076
v  9.0586 12.0261 5.6885
v  12.0586 12.0261 0.4924
v  16.9414 9.9739 3.3115
v  14.0895 10.4438 8.5931
v  17.0895 10.4438 3.3970
v  12.2067 12.4959 0.5779
v  9.2067 12.4959 5.7740
# 74 vertices

vn 0.3983 0.9173 -0.0000
vn 0.2558 0.8895 -0.3786
vn 0.1719 0.8694 -0.4633
vn 0.3983 0.9173 0.0000
vn -0.2558 0.8895 -0.3786
vn -0.1719 0.8694 -0.4633
vn -0.3983 0.9173 0.0000
vn -0.2558 0.8895 0.3786
vn -0.1719 0.8694 0.4633
vn 0.2558 0.8895 0.3786
vn 0.1719 0.8694 0.4633
vn 0.0000 -1.0000 -0.0000
vn 0.0000 1.0000 -0.0000
vn 1.0000 0.0000 -0.0000
vn 0.5000 0.0000 -0.8660
vn -0.5000 0.0000 -0.8660
vn -1.0000 0.0000 -0.0000
vn -0.5000 0.0000 0.8660
vn 0.5000 0.0000 0.8660
vn 0.2962 -0.9397 -0.1710
vn -0.2962 0.9397 0.1710
vn -0.8138 -0.3420 0.4698
vn 0.5000 -0.0000 0.8660
vn 0.8138 0.3420 -0.4698
vn -0.5000 -0.0000 -0.8660
vn 1.0000 -0.0000 0.0000
vn 0.5000 -0.0000 -0.8660
vn 1.0000 0.0000 0.0000
vn -1.0000 0.0000 0.0000
vn -1.0000 -0.0000 0.0000
vn 0.0000 0.7526 0.6585
vn 0.5039 0.8638 -0.0000
vn 0.0000 0.7526 -0.6585
vn -0.5039 0.8638 -0.0000
vn 0.0000 0.0000 1.0000
vn 0.0000 0.0000 -1.0000
vn -0.2962 -0.9397 -0.1710
vn 0.2962 0.9397 0.1710
vn 0.8138 -0.3420 0.4698
vn -0.8138 0.3420 -0.4698
# 40 vertex normals

vt 0.1852 0.8051 0.5137
vt 0.2707 0.8051 0.6029
vt 0.2984 0.9760 0.2150
vt 0.2527 0.9760 0.1612
vt 0.4067 0.8051 0.6029
vt 0.3790 0.9760 0.2150
vt 0.4922 0.8051 0.5137
vt 0.4247 0.9760 0.1612
vt 0.5949 0.8051 0.4282
vt 0.4695 0.9760 0.0815
vt 0.8025 0.8051 0.4282
vt 0.9279 0.9760 0.0815
vt 0.9052 0.8051 0.5137
vt 0.9727 0.9760 0.1612
vt 0.9907 0.8051 0.6029
vt 0.2079 0.9760 0.0815
vt 0.0426 0.5884 0.2697
vt 0.0244 0.5884 0.3129
vt 0.0244 0.9884 0.3129
vt 0.0426 0.9884 0.2697
vt 0.0349 0.5884 0.3498
vt 0.0349 0.9884 0.3498
vt 0.0598 0.5884 0.3487
vt 0.0598 0.9884 0.3487
vt 0.0801 0.5884 0.3142
vt 0.0801 0.9884 0.3142
vt 0.0747 0.5884 0.2725
vt 0.0747 0.9884 0.2725
vt 0.6814 0.5902 0.0000
vt 0.6708 0.7647 0.0000
vt 0.4955 0.7546 0.0000
vt 0.5061 0.5800 0.0000
vt 0.6817 0.5917 0.0000
vt 0.5065 0.5815 0.0000
vt 0.4958 0.7560 0.0000
vt 0.6711 0.7662 0.0000
vt 0.0362 0.0192 0.4532
vt 0.1317 0.0192 0.5400
vt 0.1317 0.5123 0.5400
vt 0.0362 0.5123 0.4532
vt 0.2828 0.0192 0.5400
vt 0.2828 0.5123 0.5400
vt 0.3783 0.0192 0.4532
vt 0.3783 0.5123 0.4532
vt 0.4956 0.0192 0.3659
vt 0.4956 0.5123 0.3659
vt 0.7408 0.0192 0.3659
vt 0.7408 0.5123 0.3659
vt 0.8580 0.0192 0.4532
vt 0.8580 0.5123 0.4532
vt 0.9535 0.0192 0.5400
vt 0.9535 0.5123 0.5400
vt 0.1805 0.5975 0.0000
vt 0.1188 0.5357 0.0000
vt 0.2422 0.5357 0.0000
vt 0.2422 0.6592 0.0000
vt 0.1188 0.6592 0.0000
vt 0.1188 0.6625 0.0000
vt 0.1741 0.7178 0.0000
vt 0.2295 0.6625 0.0000
vt 0.2295 0.7732 0.0000
vt 0.1188 0.7732 0.0000
vt 0.9217 0.6952 0.0000
vt 0.9217 0.7821 0.0000
vt 0.9296 0.7821 0.0000
vt 0.9296 0.6952 0.0000
vt 0.9095 0.6952 0.0000
vt 0.9174 0.6952 0.0000
vt 0.9174 0.7821 0.0000
vt 0.9095 0.7821 0.0000
vt 0.7510 0.5383 0.0000
vt 0.7733 0.5383 0.0000
vt 0.7733 0.7842 0.0000
vt 0.7510 0.7842 0.0000
vt 0.8310 0.5383 0.0000
vt 0.9052 0.5383 0.0000
vt 0.9052 0.6124 0.0000
vt 0.8310 0.6124 0.0000
vt 0.8267 0.5383 0.0000
vt 0.8043 0.5383 0.0000
vt 0.8043 0.7842 0.0000
vt 0.8267 0.7842 0.0000
vt 0.9836 0.5383 0.0000
vt 0.9095 0.5383 0.0000
vt 0.9095 0.6124 0.0000
vt 0.9836 0.6124 0.0000
vt 0.9461 0.6952 0.0000
vt 0.9461 0.7821 0.0000
vt 0.9541 0.7821 0.0000
vt 0.9541 0.6952 0.0000
vt 0.9339 0.6952 0.0000
vt 0.9418 0.6952 0.0000
vt 0.9418 0.7821 0.0000
vt 0.9339 0.7821 0.0000
vt 0.7777 0.5383 0.0000
vt 0.8000 0.5383 0.0000
vt 0.8000 0.7842 0.0000
vt 0.7777 0.7842 0.0000
vt 0.8310 0.6167 0.0000
vt 0.9052 0.6167 0.0000
vt 0.9052 0.6909 0.0000
vt 0.8310 0.6909 0.0000
vt 0.7467 0.5383 0.0000
vt 0.7243 0.5383 0.0000
vt 0.7243 0.7842 0.0000
vt 0.7467 0.7842 0.0000
vt 0.9052 0.6952 0.0000
vt 0.8310 0.6952 0.0000
vt 0.8310 0.7693 0.0000
vt 0.9052 0.7693 0.0000
vt 0.4825 0.5789 0.0000
vt 0.4700 0.7461 0.0000
vt 0.3028 0.7338 0.0000
vt 0.3153 0.5666 0.0000
vt 0.4828 0.5794 0.0000
vt 0.3157 0.5671 0.0000
vt 0.3032 0.7343 0.0000
vt 0.4704 0.7466 0.0000
# 118 texture coords

g House1
usemtl wire_087225087
f 1/1/1 2/2/2 3/3/3 
f 3/3/3 4/4/4 1/1/1 
f 2/2/2 5/5/5 6/6/6 
f 6/6/6 3/3/3 2/2/2 
f 5/5/5 7/7/7 8/8/7 
f 8/8/7 6/6/6 5/5/5 
f 7/7/7 9/9/8 10/10/9 
f 10/10/9 8/8/7 7/7/7 
f 9/9/8 11/11/10 12/12/11 
f 12/12/11 10/10/9 9/9/8 
f 11/11/10 1/13/1 4/14/4 
f 4/14/4 12/12/11 11/11/10 
f 9/9/12 7/7/12 5/5/12 
f 5/5/12 2/15/12 1/13/12 
f 9/9/12 5/5/12 1/13/12 
f 11/11/12 9/9/12 1/13/12 
f 3/3/13 6/6/13 8/8/13 
f 8/8/13 10/10/13 12/16/13 
f 3/3/13 8/8/13 12/16/13 
f 4/4/13 3/3/13 12/16/13 
f 13/17/14 14/18/15 15/19/15 
f 15/19/15 16/20/14 13/17/14 
f 14/18/15 17/21/16 18/22/16 
f 18/22/16 15/19/15 14/18/15 
f 17/21/16 19/23/17 20/24/17 
f 20/24/17 18/22/16 17/21/16 
f 19/23/17 21/25/18 22/26/18 
f 22/26/18 20/24/17 19/23/17 
f 21/25/18 23/27/19 24/28/19 
f 24/28/19 22/26/18 21/25/18 
f 23/27/19 13/17/14 16/20/14 
f 16/20/14 24/28/19 23/27/19 
f 21/25/12 19/23/12 17/21/12 
f 17/21/12 14/18/12 13/17/12 
f 21/25/12 17/21/12 13/17/12 
f 23/27/12 21/25/12 13/17/12 
f 15/19/13 18/22/13 20/24/13 
f 20/24/13 22/26/13 24/28/13 
f 15/19/13 20/24/13 24/28/13 
f 16/20/13 15/19/13 24/28/13 
f 25/29/20 26/30/20 27/31/20 
f 27/31/20 28/32/20 25/29/20 
f 29/33/21 30/34/21 31/35/21 
f 31/35/21 32/36/21 29/33/21 
f 25/29/22 28/32/22 30/34/22 
f 30/34/22 29/33/22 25/29/22 
f 28/32/23 27/31/19 31/35/19 
f 31/35/19 30/34/23 28/32/23 
f 27/31/24 26/30/24 32/36/24 
f 32/36/24 31/35/24 27/31/24 
f 26/30/16 25/29/25 29/33/25 
f 29/33/25 32/36/16 26/30/16 
f 33/37/26 34/38/27 35/39/27 
f 35/39/27 36/40/28 33/37/26 
f 34/38/27 37/41/25 38/42/25 
f 38/42/25 35/39/27 34/38/27 
f 37/41/25 39/43/29 40/44/30 
f 40/44/30 38/42/25 37/41/25 
f 39/43/29 41/45/18 42/46/18 
f 42/46/18 40/44/30 39/43/29 
f 41/45/18 43/47/19 44/48/19 
f 44/48/19 42/46/18 41/45/18 
f 43/47/19 33/49/26 36/50/28 
f 36/50/28 44/48/19 43/47/19 
f 41/45/12 39/43/12 37/41/12 
f 37/41/12 34/51/12 33/49/12 
f 41/45/12 37/41/12 33/49/12 
f 43/47/12 41/45/12 33/49/12 
f 35/52/13 38/42/13 40/44/13 
f 40/44/13 42/46/13 44/48/13 
f 35/52/13 40/44/13 44/48/13 
f 36/50/13 35/52/13 44/48/13 
f 45/53/31 46/54/31 47/55/31 
f 45/53/32 47/55/32 48/56/32 
f 45/53/33 48/56/33 49/57/33 
f 45/53/34 49/57/34 46/54/34 
f 46/58/12 50/59/12 47/60/12 
f 47/60/12 50/59/12 48/61/12 
f 48/61/12 50/59/12 49/62/12 
f 49/62/12 50/59/12 46/58/12 
f 51/63/12 52/64/12 53/65/12 
f 53/65/12 54/66/12 51/63/12 
f 55/67/13 56/68/13 57/69/13 
f 57/69/13 58/70/13 55/67/13 
f 51/71/35 54/72/35 56/73/35 
f 56/73/35 55/74/35 51/71/35 
f 54/75/14 53/76/14 57/77/14 
f 57/77/14 56/78/14 54/75/14 
f 53/79/36 52/80/36 58/81/36 
f 58/81/36 57/82/36 53/79/36 
f 52/83/17 51/84/17 55/85/17 
f 55/85/17 58/86/17 52/83/17 
f 59/87/12 60/88/12 61/89/12 
f 61/89/12 62/90/12 59/87/12 
f 63/91/13 64/92/13 65/93/13 
f 65/93/13 66/94/13 63/91/13 
f 59/95/35 62/96/35 64/97/35 
f 64/97/35 63/98/35 59/95/35 
f 62/99/14 61/100/14 65/101/14 
f 65/101/14 64/102/14 62/99/14 
f 61/103/36 60/104/36 66/105/36 
f 66/105/36 65/106/36 61/103/36 
f 60/107/17 59/108/17 63/109/17 
f 63/109/17 66/110/17 60/107/17 
f 67/111/37 68/112/37 69/113/37 
f 69/113/37 70/114/37 67/111/37 
f 71/115/38 72/116/38 73/117/38 
f 73/117/38 74/118/38 71/115/38 
f 67/111/39 70/114/39 72/116/39 
f 72/116/39 71/115/39 67/111/39 
f 70/114/27 69/113/15 73/117/15 
f 73/117/15 72/116/27 70/114/27 
f 69/113/40 68/112/40 74/118/40 
f 74/118/40 73/117/40 69/113/40 
f 68/112/18 67/111/18 71/115/18 
f 71/115/18 74/118/18 68/112/18 
# 116 faces

