# 3ds Max Wavefront OBJ Exporter v0.97b - (c)2007 guruware
# File Created: 15.02.2015 13:41:45

#
# object RuralHouse3
#

v  -12.2500 0.0000 26.2500
v  -11.7500 0.0000 26.2500
v  -11.7500 9.7500 26.2500
v  -12.2500 9.7500 26.2500
v  -11.7500 0.0000 25.7500
v  -11.7500 9.7500 25.7500
v  -12.2500 0.0000 25.7500
v  -12.2500 9.7500 25.7500
v  11.7500 0.0000 26.2500
v  12.2500 0.0000 26.2500
v  12.2500 9.7500 26.2500
v  11.7500 9.7500 26.2500
v  12.2500 0.0000 25.7500
v  12.2500 9.7500 25.7500
v  11.7500 0.0000 25.7500
v  11.7500 9.7500 25.7500
v  0.0000 25.0000 20.0000
v  14.0000 15.0000 20.0000
v  14.0000 15.0000 -20.0000
v  -0.0000 25.0000 -20.0000
v  -14.0000 15.0000 20.0000
v  0.0000 15.0000 20.0000
v  0.0000 15.0000 -20.0000
v  -14.0000 15.0000 -20.0000
v  -12.5000 15.0000 20.0000
v  12.5000 15.0000 20.0000
v  12.5000 15.0000 -20.0000
v  -12.5000 15.0000 -20.0000
v  -12.5000 0.0000 20.0000
v  12.5000 0.0000 20.0000
v  12.5000 0.0000 -20.0000
v  -12.5000 0.0000 -20.0000
v  -12.5000 1.5000 27.0000
v  12.5000 1.5000 27.0000
v  12.5000 1.5000 19.0000
v  -12.5000 1.5000 19.0000
v  -12.5000 0.0000 27.0000
v  12.5000 0.0000 27.0000
v  12.5000 0.0000 19.0000
v  -12.5000 0.0000 19.0000
v  -12.5000 9.2872 27.1348
v  -12.5000 11.0225 19.4857
v  12.5000 11.0225 19.4857
v  12.5000 9.2872 27.1348
v  -12.5000 9.7715 27.2588
v  12.5000 9.7715 27.2588
v  12.5000 11.5069 19.6096
v  -12.5000 11.5069 19.6096
v  8.5155 17.0693 -0.0000
v  8.5155 17.1648 -0.2939
v  10.2143 17.4339 -0.2939
v  10.2438 17.3430 -0.0000
v  8.5155 17.4148 -0.4755
v  10.1371 17.6716 -0.4755
v  8.5155 17.7238 -0.4755
v  10.0416 17.9655 -0.4755
v  8.5155 17.9738 -0.2939
v  9.9643 18.2033 -0.2939
v  8.5155 18.0693 -0.0000
v  9.9348 18.2941 -0.0000
v  8.5155 17.9738 0.2939
v  9.9643 18.2033 0.2939
v  8.5155 17.7238 0.4755
v  10.0416 17.9655 0.4755
v  8.5155 17.4148 0.4755
v  10.1371 17.6716 0.4755
v  8.5155 17.1648 0.2939
v  10.2143 17.4339 0.2939
v  11.7468 18.2147 -0.2939
v  11.8030 18.1375 -0.0000
v  11.5999 18.4170 -0.4755
v  11.4183 18.6670 -0.4755
v  11.2713 18.8692 -0.2939
v  11.2152 18.9465 -0.0000
v  11.2713 18.8692 0.2939
v  11.4183 18.6670 0.4755
v  11.5999 18.4170 0.4755
v  11.7468 18.2147 0.2939
v  12.9631 19.4309 -0.2939
v  13.0403 19.3748 -0.0000
v  12.7608 19.5779 -0.4755
v  12.5108 19.7595 -0.4755
v  12.3085 19.9065 -0.2939
v  12.2313 19.9626 -0.0000
v  12.3085 19.9065 0.2939
v  12.5108 19.7595 0.4755
v  12.7608 19.5779 0.4755
v  12.9631 19.4309 0.2939
v  13.7439 20.9634 -0.2939
v  13.8347 20.9339 -0.0000
v  13.5062 21.0407 -0.4755
v  13.2123 21.1362 -0.4755
v  12.9745 21.2134 -0.2939
v  12.8837 21.2430 -0.0000
v  12.9745 21.2134 0.2939
v  13.2123 21.1362 0.4755
v  13.5062 21.0407 0.4755
v  13.7439 20.9634 0.2939
v  14.0130 22.6623 -0.2939
v  14.1085 22.6623 -0.0000
v  13.7630 22.6623 -0.4755
v  13.4540 22.6623 -0.4755
v  13.2040 22.6623 -0.2939
v  13.1085 22.6623 -0.0000
v  13.2040 22.6623 0.2939
v  13.4540 22.6623 0.4755
v  13.7630 22.6623 0.4755
v  14.0130 22.6623 0.2939
v  14.4670 22.3358 -0.0000
v  14.3909 22.3358 -0.3827
v  13.4670 24.3358 -0.0000
v  14.1741 22.3358 -0.7071
v  13.8497 22.3358 -0.9239
v  13.4670 22.3358 -1.0000
v  13.0843 22.3358 -0.9239
v  12.7599 22.3358 -0.7071
v  12.5431 22.3358 -0.3827
v  12.4670 22.3358 -0.0000
v  12.5431 22.3358 0.3827
v  12.7599 22.3358 0.7071
v  13.0843 22.3358 0.9239
v  13.4670 22.3358 1.0000
v  13.8497 22.3358 0.9239
v  14.1741 22.3358 0.7071
v  14.3909 22.3358 0.3827
# 125 vertices

vn 0.0000 0.0000 1.0000
vn 1.0000 0.0000 -0.0000
vn 0.0000 0.0000 -1.0000
vn -1.0000 0.0000 -0.0000
vn 0.5812 0.8137 -0.0000
vn -0.5812 0.8137 -0.0000
vn 0.0000 -1.0000 0.0000
vn 0.0000 -1.0000 -0.0000
vn -0.0000 -1.0000 0.0000
vn 0.0000 1.0000 -0.0000
vn 1.0000 -0.0000 -0.0000
vn -1.0000 -0.0000 -0.0000
vn -0.0000 -0.9752 -0.2212
vn 0.0000 -0.9752 -0.2212
vn 0.0000 0.9752 0.2212
vn -0.0000 -0.2479 0.9688
vn 1.0000 0.0000 0.0000
vn 0.0000 0.2479 -0.9688
vn -1.0000 0.0000 0.0000
vn -1.0000 -0.0000 0.0000
vn 0.1564 -0.9877 0.0000
vn 0.1287 -0.8124 -0.5688
vn 0.2531 -0.7791 -0.5736
vn 0.3090 -0.9511 0.0000
vn 0.0532 -0.3359 -0.9404
vn 0.1040 -0.3200 -0.9417
vn -0.0444 0.2803 -0.9589
vn -0.0867 0.2668 -0.9598
vn -0.1254 0.7915 -0.5981
vn -0.2465 0.7588 -0.6029
vn -0.1564 0.9877 0.0000
vn -0.3090 0.9511 0.0000
vn -0.1254 0.7915 0.5981
vn -0.2465 0.7588 0.6029
vn -0.0444 0.2803 0.9589
vn -0.0867 0.2668 0.9598
vn 0.0532 -0.3359 0.9404
vn 0.1040 -0.3200 0.9417
vn 0.1287 -0.8124 0.5688
vn 0.2531 -0.7791 0.5736
vn 0.4815 -0.6627 -0.5736
vn 0.5878 -0.8090 -0.0000
vn 0.1977 -0.2722 -0.9417
vn -0.1649 0.2270 -0.9598
vn -0.4689 0.6455 -0.6029
vn -0.5878 0.8090 -0.0000
vn -0.4689 0.6455 0.6029
vn -0.1649 0.2270 0.9598
vn 0.1977 -0.2722 0.9417
vn 0.4815 -0.6627 0.5736
vn 0.6627 -0.4815 -0.5736
vn 0.8090 -0.5878 -0.0000
vn 0.2722 -0.1977 -0.9417
vn -0.2270 0.1649 -0.9598
vn -0.6455 0.4690 -0.6029
vn -0.8090 0.5878 0.0000
vn -0.6455 0.4690 0.6029
vn -0.2270 0.1649 0.9598
vn 0.2722 -0.1977 0.9417
vn 0.6627 -0.4815 0.5736
vn 0.7791 -0.2531 -0.5736
vn 0.9511 -0.3090 0.0000
vn 0.3200 -0.1040 -0.9417
vn -0.2668 0.0867 -0.9598
vn -0.7588 0.2465 -0.6029
vn -0.9511 0.3090 0.0000
vn -0.7588 0.2465 0.6029
vn -0.2668 0.0867 0.9598
vn 0.3200 -0.1040 0.9417
vn 0.7791 -0.2531 0.5736
vn 0.8124 -0.1287 -0.5688
vn 0.9877 -0.1564 0.0000
vn 0.3359 -0.0532 -0.9404
vn -0.2803 0.0444 -0.9589
vn -0.7915 0.1254 -0.5981
vn -0.9877 0.1564 0.0000
vn -0.7915 0.1254 0.5981
vn -0.2803 0.0444 0.9589
vn 0.3359 -0.0532 0.9404
vn 0.8124 -0.1287 0.5688
vn 0.8944 0.4472 -0.0000
vn 0.8263 0.4472 -0.3423
vn 0.8806 0.4403 -0.1752
vn 0.8806 0.4403 0.1752
vn 0.6325 0.4472 -0.6325
vn 0.7465 0.4403 -0.4988
vn 0.3423 0.4472 -0.8263
vn 0.4988 0.4403 -0.7465
vn 0.0000 0.4472 -0.8944
vn 0.1752 0.4403 -0.8806
vn -0.3423 0.4472 -0.8263
vn -0.1752 0.4403 -0.8806
vn -0.6325 0.4472 -0.6325
vn -0.4988 0.4403 -0.7465
vn -0.8263 0.4472 -0.3423
vn -0.7465 0.4403 -0.4988
vn -0.8944 0.4472 -0.0000
vn -0.8806 0.4403 -0.1752
vn -0.8263 0.4472 0.3423
vn -0.8806 0.4403 0.1752
vn -0.6325 0.4472 0.6325
vn -0.7465 0.4403 0.4988
vn -0.3423 0.4472 0.8263
vn -0.4988 0.4403 0.7465
vn 0.0000 0.4472 0.8944
vn -0.1752 0.4403 0.8806
vn 0.3423 0.4472 0.8263
vn 0.1752 0.4403 0.8806
vn 0.6325 0.4472 0.6325
vn 0.4988 0.4403 0.7465
vn 0.8263 0.4472 0.3423
vn 0.7465 0.4403 0.4988
# 112 vertex normals

vt 0.8119 0.8455 0.0000
vt 0.8169 0.8455 0.0000
vt 0.8169 0.9420 0.0000
vt 0.8119 0.9420 0.0000
vt 0.8332 0.8455 0.0000
vt 0.8382 0.8455 0.0000
vt 0.8382 0.9420 0.0000
vt 0.8332 0.9420 0.0000
vt 0.8757 0.8458 0.0000
vt 0.8807 0.8458 0.0000
vt 0.8807 0.9422 0.0000
vt 0.8757 0.9422 0.0000
vt 0.9365 0.8489 0.0000
vt 0.9414 0.8489 0.0000
vt 0.9414 0.9454 0.0000
vt 0.9365 0.9454 0.0000
vt 0.9179 0.8455 0.0000
vt 0.9229 0.8455 0.0000
vt 0.9229 0.9419 0.0000
vt 0.9179 0.9419 0.0000
vt 0.8952 0.8441 0.0000
vt 0.9002 0.8441 0.0000
vt 0.9002 0.9405 0.0000
vt 0.8952 0.9405 0.0000
vt 0.8544 0.8458 0.0000
vt 0.8594 0.8458 0.0000
vt 0.8594 0.9422 0.0000
vt 0.8544 0.9422 0.0000
vt 0.7906 0.8455 0.0000
vt 0.7955 0.8455 0.0000
vt 0.7955 0.9420 0.0000
vt 0.7906 0.9420 0.0000
vt 0.3151 0.1902 0.0000
vt 0.3151 0.0200 0.0000
vt 0.7133 0.0200 0.0000
vt 0.7133 0.1902 0.0000
vt 0.0200 0.8438 0.0000
vt 0.1594 0.8438 0.0000
vt 0.2988 0.8438 0.0000
vt 0.1594 0.9427 0.0000
vt 0.4545 0.7221 0.0000
vt 0.5939 0.7221 0.0000
vt 0.4545 0.8210 0.0000
vt 0.3151 0.7221 0.0000
vt 0.3151 0.2064 0.0000
vt 0.7133 0.2064 0.0000
vt 0.7133 0.3766 0.0000
vt 0.3151 0.3766 0.0000
vt 0.1594 0.0200 0.0000
vt 0.2988 0.0200 0.0000
vt 0.2988 0.4157 0.0000
vt 0.0200 0.0200 0.0000
vt 0.1594 0.4157 0.0000
vt 0.0200 0.4157 0.0000
vt 0.0200 0.4319 0.0000
vt 0.2689 0.4319 0.0000
vt 0.2689 0.8276 0.0000
vt 0.0200 0.8276 0.0000
vt 0.7297 0.0200 0.0000
vt 0.9786 0.0200 0.0000
vt 0.9786 0.1684 0.0000
vt 0.7297 0.1684 0.0000
vt 0.3151 0.5575 0.0000
vt 0.7133 0.5575 0.0000
vt 0.7133 0.7059 0.0000
vt 0.3151 0.7059 0.0000
vt 0.7297 0.2064 0.0000
vt 0.9786 0.2064 0.0000
vt 0.9786 0.3548 0.0000
vt 0.7297 0.3548 0.0000
vt 0.3151 0.3929 0.0000
vt 0.7133 0.3929 0.0000
vt 0.7133 0.5412 0.0000
vt 0.3151 0.5412 0.0000
vt 0.7297 0.3929 0.0000
vt 0.9786 0.3929 0.0000
vt 0.9786 0.4720 0.0000
vt 0.7297 0.4720 0.0000
vt 0.7310 0.4809 0.0000
vt 0.9799 0.4809 0.0000
vt 0.9799 0.4957 0.0000
vt 0.7310 0.4957 0.0000
vt 0.8303 0.3645 0.0000
vt 0.9100 0.3645 0.0000
vt 0.9100 0.3794 0.0000
vt 0.8303 0.3794 0.0000
vt 0.7338 0.3650 0.0000
vt 0.8135 0.3650 0.0000
vt 0.8135 0.3798 0.0000
vt 0.7338 0.3798 0.0000
vt 0.7293 0.7666 0.0000
vt 0.7293 0.6910 0.0000
vt 0.9782 0.6910 0.0000
vt 0.9782 0.7666 0.0000
vt 0.7297 0.5575 0.0000
vt 0.9786 0.5575 0.0000
vt 0.9786 0.6331 0.0000
vt 0.7297 0.6331 0.0000
vt 0.7256 0.7761 0.0000
vt 0.9745 0.7761 0.0000
vt 0.9745 0.7810 0.0000
vt 0.7256 0.7810 0.0000
vt 0.8258 0.6397 0.0000
vt 0.9019 0.6568 0.0000
vt 0.9007 0.6616 0.0000
vt 0.8245 0.6445 0.0000
vt 0.7276 0.6740 0.0000
vt 0.9765 0.6740 0.0000
vt 0.9765 0.6789 0.0000
vt 0.7276 0.6789 0.0000
vt 0.7317 0.6558 0.0000
vt 0.8079 0.6387 0.0000
vt 0.8091 0.6435 0.0000
vt 0.7330 0.6606 0.0000
vt 0.5321 0.8081 0.0000
vt 0.5321 0.8110 0.0000
vt 0.5963 0.8194 0.0000
vt 0.5974 0.8166 0.0000
vt 0.5321 0.8188 0.0000
vt 0.5934 0.8267 0.0000
vt 0.5321 0.8284 0.0000
vt 0.5898 0.8358 0.0000
vt 0.5321 0.8361 0.0000
vt 0.5869 0.8432 0.0000
vt 0.5321 0.8390 0.0000
vt 0.5858 0.8460 0.0000
vt 0.6543 0.8435 0.0000
vt 0.6564 0.8412 0.0000
vt 0.6487 0.8498 0.0000
vt 0.6418 0.8575 0.0000
vt 0.6363 0.8638 0.0000
vt 0.6342 0.8662 0.0000
vt 0.7002 0.8812 0.0000
vt 0.7031 0.8795 0.0000
vt 0.6926 0.8857 0.0000
vt 0.6831 0.8914 0.0000
vt 0.6755 0.8959 0.0000
vt 0.6726 0.8977 0.0000
vt 0.7297 0.9286 0.0000
vt 0.7332 0.9277 0.0000
vt 0.7207 0.9310 0.0000
vt 0.7096 0.9340 0.0000
vt 0.7006 0.9364 0.0000
vt 0.6972 0.9373 0.0000
vt 0.7399 0.9812 0.0000
vt 0.7435 0.9812 0.0000
vt 0.7304 0.9812 0.0000
vt 0.7188 0.9812 0.0000
vt 0.7093 0.9812 0.0000
vt 0.7057 0.9812 0.0000
vt 0.6274 0.8918 0.0000
vt 0.6238 0.8918 0.0000
vt 0.5808 0.9681 0.0000
vt 0.6137 0.8918 0.0000
vt 0.5986 0.8918 0.0000
vt 0.5808 0.8918 0.0000
vt 0.5629 0.8918 0.0000
vt 0.5478 0.8918 0.0000
vt 0.5377 0.8918 0.0000
vt 0.5342 0.8918 0.0000
# 160 texture coords

g RuralHouse3
f 1/1/1 2/2/1 3/3/1 
f 3/3/1 4/4/1 1/1/1 
f 2/5/2 5/6/2 6/7/2 
f 6/7/2 3/8/2 2/5/2 
f 5/9/3 7/10/3 8/11/3 
f 8/11/3 6/12/3 5/9/3 
f 7/13/4 1/14/4 4/15/4 
f 4/15/4 8/16/4 7/13/4 
f 9/17/1 10/18/1 11/19/1 
f 11/19/1 12/20/1 9/17/1 
f 10/21/2 13/22/2 14/23/2 
f 14/23/2 11/24/2 10/21/2 
f 13/25/3 15/26/3 16/27/3 
f 16/27/3 14/28/3 13/25/3 
f 15/29/4 9/30/4 12/31/4 
f 12/31/4 16/32/4 15/29/4 
f 17/33/5 18/34/5 19/35/5 
f 19/35/5 20/36/5 17/33/5 
f 21/37/1 22/38/1 18/39/1 
f 18/39/1 17/40/1 21/37/1 
f 23/41/3 24/42/3 20/43/3 
f 20/43/3 19/44/3 23/41/3 
f 24/45/6 21/46/6 17/47/6 
f 17/47/6 20/48/6 24/45/6 
f 23/49/7 19/50/7 18/51/7 
f 24/52/7 23/49/7 18/51/7 
f 24/52/8 18/51/8 22/53/8 
f 24/52/9 22/53/9 21/54/9 
f 25/55/10 26/56/10 27/57/10 
f 27/57/10 28/58/10 25/55/10 
f 29/59/1 30/60/1 26/61/1 
f 26/61/1 25/62/1 29/59/1 
f 30/63/11 31/64/11 27/65/11 
f 27/65/11 26/66/11 30/63/11 
f 31/67/3 32/68/3 28/69/3 
f 28/69/3 27/70/3 31/67/3 
f 32/71/4 29/72/4 25/73/4 
f 25/73/4 28/74/4 32/71/4 
f 33/75/10 34/76/10 35/77/10 
f 35/77/10 36/78/10 33/75/10 
f 37/79/1 38/80/1 34/81/1 
f 34/81/1 33/82/1 37/79/1 
f 38/83/2 39/84/2 35/85/2 
f 35/85/2 34/86/2 38/83/2 
f 40/87/12 37/88/12 33/89/12 
f 33/89/12 36/90/12 40/87/12 
f 41/91/13 42/92/14 43/93/13 
f 43/93/13 44/94/13 41/91/13 
f 45/95/15 46/96/15 47/97/15 
f 47/97/15 48/98/15 45/95/15 
f 41/99/16 44/100/16 46/101/16 
f 46/101/16 45/102/16 41/99/16 
f 44/103/17 43/104/17 47/105/17 
f 47/105/17 46/106/2 44/103/17 
f 43/107/18 42/108/18 48/109/18 
f 48/109/18 47/110/18 43/107/18 
f 42/111/19 41/112/20 45/113/19 
f 45/113/19 48/114/19 42/111/19 
f 49/115/21 50/116/22 51/117/23 
f 51/117/23 52/118/24 49/115/21 
f 50/116/22 53/119/25 54/120/26 
f 54/120/26 51/117/23 50/116/22 
f 53/119/25 55/121/27 56/122/28 
f 56/122/28 54/120/26 53/119/25 
f 55/121/27 57/123/29 58/124/30 
f 58/124/30 56/122/28 55/121/27 
f 57/123/29 59/125/31 60/126/32 
f 60/126/32 58/124/30 57/123/29 
f 59/125/31 61/123/33 62/124/34 
f 62/124/34 60/126/32 59/125/31 
f 61/123/33 63/121/35 64/122/36 
f 64/122/36 62/124/34 61/123/33 
f 63/121/35 65/119/37 66/120/38 
f 66/120/38 64/122/36 63/121/35 
f 65/119/37 67/116/39 68/117/40 
f 68/117/40 66/120/38 65/119/37 
f 67/116/39 49/115/21 52/118/24 
f 52/118/24 68/117/40 67/116/39 
f 52/118/24 51/117/23 69/127/41 
f 69/127/41 70/128/42 52/118/24 
f 51/117/23 54/120/26 71/129/43 
f 71/129/43 69/127/41 51/117/23 
f 54/120/26 56/122/28 72/130/44 
f 72/130/44 71/129/43 54/120/26 
f 56/122/28 58/124/30 73/131/45 
f 73/131/45 72/130/44 56/122/28 
f 58/124/30 60/126/32 74/132/46 
f 74/132/46 73/131/45 58/124/30 
f 60/126/32 62/124/34 75/131/47 
f 75/131/47 74/132/46 60/126/32 
f 62/124/34 64/122/36 76/130/48 
f 76/130/48 75/131/47 62/124/34 
f 64/122/36 66/120/38 77/129/49 
f 77/129/49 76/130/48 64/122/36 
f 66/120/38 68/117/40 78/127/50 
f 78/127/50 77/129/49 66/120/38 
f 68/117/40 52/118/24 70/128/42 
f 70/128/42 78/127/50 68/117/40 
f 70/128/42 69/127/41 79/133/51 
f 79/133/51 80/134/52 70/128/42 
f 69/127/41 71/129/43 81/135/53 
f 81/135/53 79/133/51 69/127/41 
f 71/129/43 72/130/44 82/136/54 
f 82/136/54 81/135/53 71/129/43 
f 72/130/44 73/131/45 83/137/55 
f 83/137/55 82/136/54 72/130/44 
f 73/131/45 74/132/46 84/138/56 
f 84/138/56 83/137/55 73/131/45 
f 74/132/46 75/131/47 85/137/57 
f 85/137/57 84/138/56 74/132/46 
f 75/131/47 76/130/48 86/136/58 
f 86/136/58 85/137/57 75/131/47 
f 76/130/48 77/129/49 87/135/59 
f 87/135/59 86/136/58 76/130/48 
f 77/129/49 78/127/50 88/133/60 
f 88/133/60 87/135/59 77/129/49 
f 78/127/50 70/128/42 80/134/52 
f 80/134/52 88/133/60 78/127/50 
f 80/134/52 79/133/51 89/139/61 
f 89/139/61 90/140/62 80/134/52 
f 79/133/51 81/135/53 91/141/63 
f 91/141/63 89/139/61 79/133/51 
f 81/135/53 82/136/54 92/142/64 
f 92/142/64 91/141/63 81/135/53 
f 82/136/54 83/137/55 93/143/65 
f 93/143/65 92/142/64 82/136/54 
f 83/137/55 84/138/56 94/144/66 
f 94/144/66 93/143/65 83/137/55 
f 84/138/56 85/137/57 95/143/67 
f 95/143/67 94/144/66 84/138/56 
f 85/137/57 86/136/58 96/142/68 
f 96/142/68 95/143/67 85/137/57 
f 86/136/58 87/135/59 97/141/69 
f 97/141/69 96/142/68 86/136/58 
f 87/135/59 88/133/60 98/139/70 
f 98/139/70 97/141/69 87/135/59 
f 88/133/60 80/134/52 90/140/62 
f 90/140/62 98/139/70 88/133/60 
f 90/140/62 89/139/61 99/145/71 
f 99/145/71 100/146/72 90/140/62 
f 89/139/61 91/141/63 101/147/73 
f 101/147/73 99/145/71 89/139/61 
f 91/141/63 92/142/64 102/148/74 
f 102/148/74 101/147/73 91/141/63 
f 92/142/64 93/143/65 103/149/75 
f 103/149/75 102/148/74 92/142/64 
f 93/143/65 94/144/66 104/150/76 
f 104/150/76 103/149/75 93/143/65 
f 94/144/66 95/143/67 105/149/77 
f 105/149/77 104/150/76 94/144/66 
f 95/143/67 96/142/68 106/148/78 
f 106/148/78 105/149/77 95/143/67 
f 96/142/68 97/141/69 107/147/79 
f 107/147/79 106/148/78 96/142/68 
f 97/141/69 98/139/70 108/145/80 
f 108/145/80 107/147/79 97/141/69 
f 98/139/70 90/140/62 100/146/72 
f 100/146/72 108/145/80 98/139/70 
f 65/119/4 63/121/4 61/123/4 
f 61/123/4 59/125/4 57/123/4 
f 57/123/4 55/121/4 53/119/4 
f 53/119/4 50/116/4 49/115/4 
f 57/123/4 53/119/4 49/115/4 
f 61/123/4 57/123/4 49/115/4 
f 65/119/4 61/123/4 49/115/4 
f 67/116/4 65/119/4 49/115/4 
f 99/145/10 101/147/10 102/148/10 
f 102/148/10 103/149/10 104/150/10 
f 104/150/10 105/149/10 106/148/10 
f 106/148/10 107/147/10 108/145/10 
f 104/150/10 106/148/10 108/145/10 
f 102/148/10 104/150/10 108/145/10 
f 99/145/10 102/148/10 108/145/10 
f 100/146/10 99/145/10 108/145/10 
f 109/151/81 110/152/82 111/153/83 
f 111/153/83 111/153/84 109/151/81 
f 110/152/82 112/154/85 111/153/86 
f 111/153/86 111/153/83 110/152/82 
f 112/154/85 113/155/87 111/153/88 
f 111/153/88 111/153/86 112/154/85 
f 113/155/87 114/156/89 111/153/90 
f 111/153/90 111/153/88 113/155/87 
f 114/156/89 115/157/91 111/153/92 
f 111/153/92 111/153/90 114/156/89 
f 115/157/91 116/158/93 111/153/94 
f 111/153/94 111/153/92 115/157/91 
f 116/158/93 117/159/95 111/153/96 
f 111/153/96 111/153/94 116/158/93 
f 117/159/95 118/160/97 111/153/98 
f 111/153/98 111/153/96 117/159/95 
f 118/160/97 119/159/99 111/153/100 
f 111/153/100 111/153/98 118/160/97 
f 119/159/99 120/158/101 111/153/102 
f 111/153/102 111/153/100 119/159/99 
f 120/158/101 121/157/103 111/153/104 
f 111/153/104 111/153/102 120/158/101 
f 121/157/103 122/156/105 111/153/106 
f 111/153/106 111/153/104 121/157/103 
f 122/156/105 123/155/107 111/153/108 
f 111/153/108 111/153/106 122/156/105 
f 123/155/107 124/154/109 111/153/110 
f 111/153/110 111/153/108 123/155/107 
f 124/154/109 125/152/111 111/153/112 
f 111/153/112 111/153/110 124/154/109 
f 125/152/111 109/151/81 111/153/84 
f 111/153/84 111/153/112 125/152/111 
f 124/154/8 123/155/8 122/156/8 
f 122/156/8 121/157/8 120/158/8 
f 120/158/8 119/159/8 118/160/8 
f 122/156/8 120/158/8 118/160/8 
f 118/160/8 117/159/8 116/158/8 
f 116/158/8 115/157/8 114/156/8 
f 118/160/8 116/158/8 114/156/8 
f 114/156/8 113/155/8 112/154/8 
f 112/154/8 110/152/8 109/151/8 
f 114/156/8 112/154/8 109/151/8 
f 118/160/8 114/156/8 109/151/8 
f 122/156/8 118/160/8 109/151/8 
f 124/154/8 122/156/8 109/151/8 
f 125/152/8 124/154/8 109/151/8 
f 111/153/2 111/153/2 111/153/2 
f 111/153/2 111/153/2 111/153/2 
f 111/153/2 111/153/2 111/153/2 
f 111/153/2 111/153/2 111/153/2 
f 111/153/2 111/153/2 111/153/2 
f 111/153/2 111/153/2 111/153/2 
f 111/153/2 111/153/2 111/153/2 
f 111/153/2 111/153/2 111/153/2 
f 111/153/2 111/153/2 111/153/2 
f 111/153/2 111/153/2 111/153/2 
f 111/153/2 111/153/2 111/153/2 
f 111/153/2 111/153/2 111/153/2 
f 111/153/2 111/153/2 111/153/2 
f 111/153/2 111/153/2 111/153/2 
# 234 faces

