# 3ds Max Wavefront OBJ Exporter v0.97b - (c)2007 guruware
# File Created: 14.08.2014 12:01:45

mtllib silo.mtl

#
# object Cylinder001
#

v  20.0000 0.0000 -0.0000
v  18.7939 0.0000 -6.8404
v  18.7939 200.0000 -6.8404
v  20.0000 200.0000 -0.0000
v  15.3209 0.0000 -12.8558
v  15.3209 200.0000 -12.8558
v  10.0000 0.0000 -17.3205
v  10.0000 200.0000 -17.3205
v  3.4730 0.0000 -19.6962
v  3.4730 200.0000 -19.6962
v  -3.4730 0.0000 -19.6962
v  -3.4730 200.0000 -19.6962
v  -10.0000 0.0000 -17.3205
v  -10.0000 200.0000 -17.3205
v  -15.3209 0.0000 -12.8558
v  -15.3209 200.0000 -12.8558
v  -18.7939 0.0000 -6.8404
v  -18.7939 200.0000 -6.8404
v  -20.0000 0.0000 -0.0000
v  -20.0000 200.0000 -0.0000
v  -18.7939 0.0000 6.8404
v  -18.7939 200.0000 6.8404
v  -15.3209 0.0000 12.8557
v  -15.3209 200.0000 12.8557
v  -10.0000 0.0000 17.3205
v  -10.0000 200.0000 17.3205
v  -3.4730 0.0000 19.6962
v  -3.4730 200.0000 19.6962
v  3.4730 0.0000 19.6962
v  3.4730 200.0000 19.6962
v  10.0000 0.0000 17.3205
v  10.0000 200.0000 17.3205
v  15.3209 0.0000 12.8558
v  15.3209 200.0000 12.8558
v  18.7938 0.0000 6.8404
v  18.7938 200.0000 6.8404
# 36 vertices

vn 1.0000 0.0000 0.0000
vn 0.9397 0.0000 -0.3420
vn 0.7660 0.0000 -0.6428
vn 0.5000 0.0000 -0.8660
vn 0.1736 0.0000 -0.9848
vn -0.1736 0.0000 -0.9848
vn -0.5000 0.0000 -0.8660
vn -0.7660 0.0000 -0.6428
vn -0.9397 0.0000 -0.3420
vn -1.0000 0.0000 -0.0000
vn -0.9397 0.0000 0.3420
vn -0.7660 0.0000 0.6428
vn -0.5000 0.0000 0.8660
vn -0.1736 0.0000 0.9848
vn 0.1736 0.0000 0.9848
vn 0.5000 0.0000 0.8660
vn 0.7660 0.0000 0.6428
vn 0.9397 0.0000 0.3420
# 18 vertex normals

vt 0.0200 0.4988 0.0000
vt 0.0200 0.4660 0.0000
vt 0.9800 0.4660 0.0000
vt 0.9800 0.4988 0.0000
vt 0.0200 0.4371 0.0000
vt 0.9800 0.4371 0.0000
vt 0.0200 0.1671 0.0000
vt 0.0200 0.1415 0.0000
vt 0.9800 0.1415 0.0000
vt 0.9800 0.1671 0.0000
vt 0.0200 0.1102 0.0000
vt 0.9800 0.1102 0.0000
vt 0.0200 0.0769 0.0000
vt 0.9800 0.0769 0.0000
vt 0.0200 0.0455 0.0000
vt 0.9800 0.0455 0.0000
vt 0.0200 0.0200 0.0000
vt 0.9800 0.0200 0.0000
vt 0.0200 0.7454 0.0000
vt 0.0200 0.7165 0.0000
vt 0.9800 0.7165 0.0000
vt 0.9800 0.7454 0.0000
vt 0.0200 0.6837 0.0000
vt 0.9800 0.6837 0.0000
vt 0.0200 0.6509 0.0000
vt 0.9800 0.6509 0.0000
vt 0.0200 0.6220 0.0000
vt 0.9800 0.6220 0.0000
vt 0.0200 0.3756 0.0000
vt 0.0200 0.3501 0.0000
vt 0.9800 0.3501 0.0000
vt 0.9800 0.3756 0.0000
vt 0.0200 0.3188 0.0000
vt 0.9800 0.3188 0.0000
vt 0.0200 0.2854 0.0000
vt 0.9800 0.2854 0.0000
vt 0.0200 0.2541 0.0000
vt 0.9800 0.2541 0.0000
vt 0.0200 0.2286 0.0000
vt 0.9800 0.2286 0.0000
vt 0.0200 0.5605 0.0000
vt 0.0200 0.5317 0.0000
vt 0.9800 0.5317 0.0000
vt 0.9800 0.5605 0.0000
# 44 texture coords

g Cylinder001
usemtl wire_224086086
s 8
f 1/1/1 2/2/2 3/3/2 
f 3/3/2 4/4/1 1/1/1 
f 2/2/2 5/5/3 6/6/3 
f 6/6/3 3/3/2 2/2/2 
f 5/7/3 7/8/4 8/9/4 
f 8/9/4 6/10/3 5/7/3 
f 7/8/4 9/11/5 10/12/5 
f 10/12/5 8/9/4 7/8/4 
f 9/11/5 11/13/6 12/14/6 
f 12/14/6 10/12/5 9/11/5 
f 11/13/6 13/15/7 14/16/7 
f 14/16/7 12/14/6 11/13/6 
f 13/15/7 15/17/8 16/18/8 
f 16/18/8 14/16/7 13/15/7 
f 15/19/8 17/20/9 18/21/9 
f 18/21/9 16/22/8 15/19/8 
f 17/20/9 19/23/10 20/24/10 
f 20/24/10 18/21/9 17/20/9 
f 19/23/10 21/25/11 22/26/11 
f 22/26/11 20/24/10 19/23/10 
f 21/25/11 23/27/12 24/28/12 
f 24/28/12 22/26/11 21/25/11 
f 23/29/12 25/30/13 26/31/13 
f 26/31/13 24/32/12 23/29/12 
f 25/30/13 27/33/14 28/34/14 
f 28/34/14 26/31/13 25/30/13 
f 27/33/14 29/35/15 30/36/15 
f 30/36/15 28/34/14 27/33/14 
f 29/35/15 31/37/16 32/38/16 
f 32/38/16 30/36/15 29/35/15 
f 31/37/16 33/39/17 34/40/17 
f 34/40/17 32/38/16 31/37/16 
f 33/41/17 35/42/18 36/43/18 
f 36/43/18 34/44/17 33/41/17 
f 35/42/18 1/1/1 4/4/1 
f 4/4/1 36/43/18 35/42/18 
# 36 faces

#
# object Sphere001
#

v  0.0000 223.4732 -0.0000
v  -1.1878 222.2671 -6.7365
v  -3.4202 222.2671 -5.9240
v  -5.2401 222.2671 -4.3969
v  -6.4279 222.2671 -2.3396
v  -6.8404 222.2671 -0.0000
v  -6.4279 222.2671 2.3396
v  -5.2401 222.2671 4.3969
v  -3.4202 222.2671 5.9240
v  -1.1878 222.2671 6.7365
v  1.1878 222.2671 6.7365
v  3.4202 222.2671 5.9240
v  5.2400 222.2671 4.3969
v  6.4279 222.2671 2.3396
v  6.8404 222.2671 0.0000
v  6.4279 222.2671 -2.3396
v  5.2401 222.2671 -4.3969
v  3.4202 222.2671 -5.9240
v  1.1878 222.2671 -6.7365
v  -6.4279 218.7941 -11.1334
v  -2.2324 218.7941 -12.6604
v  -9.8481 218.7941 -8.2635
v  -12.0805 218.7941 -4.3969
v  -12.8558 218.7941 -0.0000
v  -12.0805 218.7941 4.3969
v  -9.8481 218.7941 8.2635
v  -6.4279 218.7941 11.1334
v  -2.2324 218.7941 12.6604
v  2.2324 218.7941 12.6604
v  6.4279 218.7941 11.1334
v  9.8481 218.7941 8.2635
v  12.0805 218.7941 4.3969
v  12.8558 218.7941 0.0000
v  12.0805 218.7941 -4.3969
v  9.8481 218.7941 -8.2635
v  6.4279 218.7941 -11.1334
v  2.2324 218.7941 -12.6604
v  -8.6603 213.4732 -15.0000
v  -3.0077 213.4732 -17.0574
v  -13.2683 213.4732 -11.1334
v  -16.2760 213.4732 -5.9240
v  -17.3205 213.4732 -0.0000
v  -16.2760 213.4732 5.9240
v  -13.2683 213.4732 11.1334
v  -8.6603 213.4732 15.0000
v  -3.0077 213.4732 17.0574
v  3.0077 213.4732 17.0574
v  8.6602 213.4732 15.0000
v  13.2683 213.4732 11.1334
v  16.2759 213.4732 5.9240
v  17.3205 213.4732 0.0000
v  16.2760 213.4732 -5.9239
v  13.2683 213.4732 -11.1334
v  8.6603 213.4732 -15.0000
v  3.0077 213.4732 -17.0574
v  -9.8481 206.9462 -17.0574
v  -3.4202 206.9462 -19.3969
v  -15.0881 206.9462 -12.6604
v  -18.5083 206.9462 -6.7365
v  -19.6962 206.9462 -0.0000
v  -18.5083 206.9462 6.7365
v  -15.0881 206.9462 12.6604
v  -9.8481 206.9462 17.0574
v  -3.4202 206.9462 19.3969
v  3.4202 206.9462 19.3969
v  9.8481 206.9462 17.0574
v  15.0881 206.9462 12.6605
v  18.5083 206.9462 6.7365
v  19.6962 206.9462 0.0000
v  18.5083 206.9462 -6.7365
v  15.0881 206.9462 -12.6604
v  9.8481 206.9462 -17.0574
v  3.4202 206.9462 -19.3969
v  -9.8481 200.0003 -17.0574
v  -3.4202 200.0003 -19.3969
v  -15.0881 200.0003 -12.6604
v  -18.5083 200.0003 -6.7365
v  -19.6962 200.0003 -0.0000
v  -18.5083 200.0003 6.7365
v  -15.0881 200.0003 12.6604
v  -9.8481 200.0003 17.0574
v  -3.4202 200.0003 19.3969
v  3.4202 200.0003 19.3969
v  9.8481 200.0003 17.0574
v  15.0881 200.0003 12.6605
v  18.5083 200.0003 6.7365
v  19.6962 200.0003 0.0000
v  18.5083 200.0003 -6.7365
v  15.0881 200.0003 -12.6604
v  9.8481 200.0003 -17.0574
v  3.4202 200.0003 -19.3969
# 91 vertices

vn 0.0000 1.0000 0.0000
vn -0.0623 0.9334 -0.3534
vn -0.1794 0.9334 -0.3107
vn -0.2749 0.9334 -0.2306
vn -0.3372 0.9334 -0.1227
vn -0.3588 0.9334 -0.0000
vn -0.3372 0.9334 0.1227
vn -0.2749 0.9334 0.2306
vn -0.1794 0.9334 0.3107
vn -0.0623 0.9334 0.3534
vn 0.0623 0.9334 0.3534
vn 0.1794 0.9334 0.3108
vn 0.2749 0.9334 0.2306
vn 0.3372 0.9334 0.1227
vn 0.3588 0.9334 0.0000
vn 0.3372 0.9334 -0.1227
vn 0.2749 0.9334 -0.2306
vn 0.1794 0.9334 -0.3107
vn 0.0623 0.9334 -0.3534
vn -0.3269 0.7567 -0.5662
vn -0.1135 0.7567 -0.6439
vn -0.5009 0.7567 -0.4203
vn -0.6144 0.7567 -0.2236
vn -0.6538 0.7567 -0.0000
vn -0.6144 0.7567 0.2236
vn -0.5009 0.7567 0.4203
vn -0.3269 0.7567 0.5662
vn -0.1135 0.7567 0.6439
vn 0.1135 0.7567 0.6439
vn 0.3269 0.7567 0.5662
vn 0.5009 0.7567 0.4203
vn 0.6144 0.7567 0.2236
vn 0.6538 0.7567 0.0000
vn 0.6144 0.7567 -0.2236
vn 0.5009 0.7567 -0.4203
vn 0.3269 0.7567 -0.5662
vn 0.1135 0.7567 -0.6439
vn -0.4353 0.4919 -0.7540
vn -0.1512 0.4919 -0.8575
vn -0.6670 0.4919 -0.5597
vn -0.8182 0.4919 -0.2978
vn -0.8707 0.4919 -0.0000
vn -0.8182 0.4919 0.2978
vn -0.6670 0.4919 0.5597
vn -0.4353 0.4919 0.7540
vn -0.1512 0.4919 0.8574
vn 0.1512 0.4919 0.8575
vn 0.4353 0.4919 0.7540
vn 0.6670 0.4919 0.5597
vn 0.8182 0.4919 0.2978
vn 0.8707 0.4919 0.0000
vn 0.8182 0.4919 -0.2978
vn 0.6670 0.4919 -0.5597
vn 0.4353 0.4919 -0.7540
vn 0.1512 0.4919 -0.8574
vn -0.4927 0.1705 -0.8534
vn -0.1711 0.1705 -0.9704
vn -0.7548 0.1705 -0.6334
vn -0.9259 0.1705 -0.3370
vn -0.9854 0.1705 -0.0000
vn -0.9259 0.1705 0.3370
vn -0.7548 0.1705 0.6334
vn -0.4927 0.1705 0.8534
vn -0.1711 0.1705 0.9704
vn 0.1711 0.1705 0.9704
vn 0.4927 0.1705 0.8534
vn 0.7548 0.1705 0.6334
vn 0.9259 0.1705 0.3370
vn 0.9854 0.1705 0.0000
vn 0.9259 0.1705 -0.3370
vn 0.7548 0.1705 -0.6334
vn 0.4927 0.1705 -0.8534
vn 0.1711 0.1705 -0.9704
vn -0.5000 0.0000 -0.8660
vn -0.1736 0.0000 -0.9848
vn -0.7660 0.0000 -0.6428
vn -0.9397 0.0000 -0.3420
vn -1.0000 0.0000 -0.0000
vn -0.9397 -0.0000 0.3420
vn -0.7660 -0.0000 0.6428
vn -0.5000 -0.0000 0.8660
vn -0.1736 0.0000 0.9848
vn 0.1736 0.0000 0.9848
vn 0.5000 0.0000 0.8660
vn 0.7660 0.0000 0.6428
vn 0.9397 0.0000 0.3420
vn 1.0000 -0.0000 0.0000
vn 0.9397 0.0000 -0.3420
vn 0.7660 0.0000 -0.6428
vn 0.5000 0.0000 -0.8660
vn 0.1736 0.0000 -0.9848
# 91 vertex normals

vt 0.0817 0.8677 0.0000
vt 0.1145 0.8677 0.0000
vt 0.1126 0.8789 0.0000
vt 0.1069 0.8888 0.0000
vt 0.0981 0.8961 0.0000
vt 0.0874 0.9000 0.0000
vt 0.0760 0.9000 0.0000
vt 0.0653 0.8961 0.0000
vt 0.0566 0.8888 0.0000
vt 0.0509 0.8789 0.0000
vt 0.0489 0.8677 0.0000
vt 0.0509 0.8564 0.0000
vt 0.0566 0.8466 0.0000
vt 0.0653 0.8392 0.0000
vt 0.0760 0.8353 0.0000
vt 0.0874 0.8353 0.0000
vt 0.0981 0.8392 0.0000
vt 0.1069 0.8466 0.0000
vt 0.1126 0.8564 0.0000
vt 0.1397 0.8888 0.0000
vt 0.1434 0.8677 0.0000
vt 0.1290 0.9073 0.0000
vt 0.1126 0.9211 0.0000
vt 0.0924 0.9284 0.0000
vt 0.0710 0.9284 0.0000
vt 0.0509 0.9211 0.0000
vt 0.0344 0.9073 0.0000
vt 0.0237 0.8888 0.0000
vt 0.0200 0.8677 0.0000
vt 0.0237 0.8466 0.0000
vt 0.0344 0.8280 0.0000
vt 0.0509 0.8142 0.0000
vt 0.0710 0.8069 0.0000
vt 0.0924 0.8069 0.0000
vt 0.1126 0.8142 0.0000
vt 0.1290 0.8280 0.0000
vt 0.1397 0.8466 0.0000
vt 0.6191 0.8324 0.0000
vt 0.6265 0.8069 0.0000
vt 0.6476 0.8069 0.0000
vt 0.6476 0.8324 0.0000
vt 0.2336 0.9432 0.0000
vt 0.2336 0.9765 0.0000
vt 0.2124 0.9790 0.0000
vt 0.2049 0.9465 0.0000
vt 0.2612 0.9464 0.0000
vt 0.2542 0.9789 0.0000
vt 0.2917 0.8324 0.0000
vt 0.2880 0.8069 0.0000
vt 0.3082 0.8069 0.0000
vt 0.3189 0.8324 0.0000
vt 0.2629 0.8324 0.0000
vt 0.2666 0.8069 0.0000
vt 0.2357 0.8324 0.0000
vt 0.2465 0.8069 0.0000
vt 0.6155 0.9432 0.0000
vt 0.6155 0.9765 0.0000
vt 0.5943 0.9790 0.0000
vt 0.5868 0.9465 0.0000
vt 0.6432 0.9464 0.0000
vt 0.6361 0.9789 0.0000
vt 0.8152 0.8324 0.0000
vt 0.8152 0.8069 0.0000
vt 0.8363 0.8069 0.0000
vt 0.8436 0.8324 0.0000
vt 0.7868 0.8324 0.0000
vt 0.7941 0.8069 0.0000
vt 0.7831 0.9432 0.0000
vt 0.7832 0.9765 0.0000
vt 0.7619 0.9790 0.0000
vt 0.7544 0.9465 0.0000
vt 0.8108 0.9464 0.0000
vt 0.8037 0.9789 0.0000
vt 0.4827 0.8324 0.0000
vt 0.4790 0.8069 0.0000
vt 0.4991 0.8069 0.0000
vt 0.5098 0.8324 0.0000
vt 0.4538 0.8324 0.0000
vt 0.4575 0.8069 0.0000
vt 0.4267 0.8324 0.0000
vt 0.4374 0.8069 0.0000
vt 0.4245 0.9432 0.0000
vt 0.4246 0.9765 0.0000
vt 0.4033 0.9790 0.0000
vt 0.3958 0.9465 0.0000
vt 0.4522 0.9464 0.0000
vt 0.4451 0.9789 0.0000
vt 0.6687 0.8069 0.0000
vt 0.6760 0.8324 0.0000
vt 0.6152 0.8638 0.0000
vt 0.6476 0.8638 0.0000
vt 0.5868 0.8638 0.0000
vt 0.5941 0.8324 0.0000
vt 0.3246 0.8638 0.0000
vt 0.3410 0.8324 0.0000
vt 0.3497 0.8638 0.0000
vt 0.2937 0.8638 0.0000
vt 0.2609 0.8638 0.0000
vt 0.2300 0.8638 0.0000
vt 0.2049 0.8638 0.0000
vt 0.2136 0.8324 0.0000
vt 0.8475 0.8638 0.0000
vt 0.8686 0.8324 0.0000
vt 0.8760 0.8638 0.0000
vt 0.8152 0.8638 0.0000
vt 0.7829 0.8638 0.0000
vt 0.7544 0.8638 0.0000
vt 0.7618 0.8324 0.0000
vt 0.5155 0.8638 0.0000
vt 0.5320 0.8324 0.0000
vt 0.5407 0.8638 0.0000
vt 0.4847 0.8638 0.0000
vt 0.4518 0.8638 0.0000
vt 0.4210 0.8638 0.0000
vt 0.3958 0.8638 0.0000
vt 0.4046 0.8324 0.0000
vt 0.6799 0.8638 0.0000
vt 0.7010 0.8324 0.0000
vt 0.7083 0.8638 0.0000
vt 0.6152 0.8971 0.0000
vt 0.6476 0.8971 0.0000
vt 0.5868 0.8971 0.0000
vt 0.3246 0.8971 0.0000
vt 0.3497 0.8971 0.0000
vt 0.2937 0.8971 0.0000
vt 0.2609 0.8971 0.0000
vt 0.2300 0.8971 0.0000
vt 0.2049 0.8971 0.0000
vt 0.8475 0.8971 0.0000
vt 0.8760 0.8971 0.0000
vt 0.8152 0.8971 0.0000
vt 0.7829 0.8971 0.0000
vt 0.7544 0.8971 0.0000
vt 0.5155 0.8971 0.0000
vt 0.5407 0.8971 0.0000
vt 0.4847 0.8971 0.0000
vt 0.4518 0.8971 0.0000
vt 0.4210 0.8971 0.0000
vt 0.3958 0.8971 0.0000
vt 0.6799 0.8971 0.0000
vt 0.7083 0.8971 0.0000
# 141 texture coords

g Sphere001
usemtl wire_143225087
s 1
f 37/45/19 38/46/20 39/47/21 
f 37/45/19 39/47/21 40/48/22 
f 37/45/19 40/48/22 41/49/23 
f 37/45/19 41/49/23 42/50/24 
f 37/45/19 42/50/24 43/51/25 
f 37/45/19 43/51/25 44/52/26 
f 37/45/19 44/52/26 45/53/27 
f 37/45/19 45/53/27 46/54/28 
f 37/45/19 46/54/28 47/55/29 
f 37/45/19 47/55/29 48/56/30 
f 37/45/19 48/56/30 49/57/31 
f 37/45/19 49/57/31 50/58/32 
f 37/45/19 50/58/32 51/59/33 
f 37/45/19 51/59/33 52/60/34 
f 37/45/19 52/60/34 53/61/35 
f 37/45/19 53/61/35 54/62/36 
f 37/45/19 54/62/36 55/63/37 
f 37/45/19 55/63/37 38/46/20 
f 56/64/38 39/47/21 38/46/20 
f 38/46/20 57/65/39 56/64/38 
f 58/66/40 40/48/22 39/47/21 
f 39/47/21 56/64/38 58/66/40 
f 59/67/41 41/49/23 40/48/22 
f 40/48/22 58/66/40 59/67/41 
f 60/68/42 42/50/24 41/49/23 
f 41/49/23 59/67/41 60/68/42 
f 61/69/43 43/51/25 42/50/24 
f 42/50/24 60/68/42 61/69/43 
f 62/70/44 44/52/26 43/51/25 
f 43/51/25 61/69/43 62/70/44 
f 63/71/45 45/53/27 44/52/26 
f 44/52/26 62/70/44 63/71/45 
f 64/72/46 46/54/28 45/53/27 
f 45/53/27 63/71/45 64/72/46 
f 65/73/47 47/55/29 46/54/28 
f 46/54/28 64/72/46 65/73/47 
f 66/74/48 48/56/30 47/55/29 
f 47/55/29 65/73/47 66/74/48 
f 67/75/49 49/57/31 48/56/30 
f 48/56/30 66/74/48 67/75/49 
f 68/76/50 50/58/32 49/57/31 
f 49/57/31 67/75/49 68/76/50 
f 69/77/51 51/59/33 50/58/32 
f 50/58/32 68/76/50 69/77/51 
f 70/78/52 52/60/34 51/59/33 
f 51/59/33 69/77/51 70/78/52 
f 71/79/53 53/61/35 52/60/34 
f 52/60/34 70/78/52 71/79/53 
f 72/80/54 54/62/36 53/61/35 
f 53/61/35 71/79/53 72/80/54 
f 73/81/55 55/63/37 54/62/36 
f 54/62/36 72/80/54 73/81/55 
f 57/65/39 38/46/20 55/63/37 
f 55/63/37 73/81/55 57/65/39 
f 74/82/56 56/83/38 57/84/39 
f 57/84/39 75/85/57 74/82/56 
f 76/86/58 58/87/40 56/88/38 
f 56/88/38 74/89/56 76/86/58 
f 77/90/59 59/91/41 58/87/40 
f 58/87/40 76/86/58 77/90/59 
f 78/92/60 60/93/42 59/94/41 
f 59/94/41 77/95/59 78/92/60 
f 79/96/61 61/97/43 60/93/42 
f 60/93/42 78/92/60 79/96/61 
f 80/98/62 62/99/44 61/97/43 
f 61/97/43 79/96/61 80/98/62 
f 81/100/63 63/101/45 62/102/44 
f 62/102/44 80/103/62 81/100/63 
f 82/104/64 64/105/46 63/101/45 
f 63/101/45 81/100/63 82/104/64 
f 83/106/65 65/107/47 64/108/46 
f 64/108/46 82/109/64 83/106/65 
f 84/110/66 66/111/48 65/107/47 
f 65/107/47 83/106/65 84/110/66 
f 85/112/67 67/113/49 66/114/48 
f 66/114/48 84/115/66 85/112/67 
f 86/116/68 68/117/50 67/113/49 
f 67/113/49 85/112/67 86/116/68 
f 87/118/69 69/119/51 68/120/50 
f 68/120/50 86/121/68 87/118/69 
f 88/122/70 70/123/52 69/119/51 
f 69/119/51 87/118/69 88/122/70 
f 89/124/71 71/125/53 70/123/52 
f 70/123/52 88/122/70 89/124/71 
f 90/126/72 72/127/54 71/128/53 
f 71/128/53 89/129/71 90/126/72 
f 91/130/73 73/131/55 72/127/54 
f 72/127/54 90/126/72 91/130/73 
f 75/85/57 57/84/39 73/132/55 
f 73/132/55 91/133/73 75/85/57 
f 92/134/74 74/82/56 75/85/57 
f 75/85/57 93/135/75 92/134/74 
f 94/136/76 76/137/58 74/82/56 
f 74/82/56 92/134/74 94/136/76 
f 95/138/77 77/95/59 76/139/58 
f 76/139/58 94/140/76 95/138/77 
f 96/141/78 78/92/60 77/95/59 
f 77/95/59 95/138/77 96/141/78 
f 97/142/79 79/96/61 78/92/60 
f 78/92/60 96/141/78 97/142/79 
f 98/143/80 80/98/62 79/96/61 
f 79/96/61 97/142/79 98/143/80 
f 99/144/81 81/145/63 80/98/62 
f 80/98/62 98/143/80 99/144/81 
f 100/146/82 82/109/64 81/147/63 
f 81/147/63 99/148/81 100/146/82 
f 101/149/83 83/106/65 82/109/64 
f 82/109/64 100/146/82 101/149/83 
f 102/150/84 84/110/66 83/106/65 
f 83/106/65 101/149/83 102/150/84 
f 103/151/85 85/152/67 84/110/66 
f 84/110/66 102/150/84 103/151/85 
f 104/153/86 86/121/68 85/154/67 
f 85/154/67 103/155/85 104/153/86 
f 105/156/87 87/118/69 86/121/68 
f 86/121/68 104/153/86 105/156/87 
f 106/157/88 88/122/70 87/118/69 
f 87/118/69 105/156/87 106/157/88 
f 107/158/89 89/124/71 88/122/70 
f 88/122/70 106/157/88 107/158/89 
f 108/159/90 90/160/72 89/124/71 
f 89/124/71 107/158/89 108/159/90 
f 109/161/91 91/133/73 90/162/72 
f 90/162/72 108/163/90 109/161/91 
f 93/135/75 75/85/57 91/133/73 
f 91/133/73 109/161/91 93/135/75 
f 110/164/92 92/134/74 93/135/75 
f 93/135/75 111/165/93 110/164/92 
f 112/166/94 94/136/76 92/134/74 
f 92/134/74 110/164/92 112/166/94 
f 113/167/95 95/138/77 94/140/76 
f 94/140/76 112/168/94 113/167/95 
f 114/169/96 96/141/78 95/138/77 
f 95/138/77 113/167/95 114/169/96 
f 115/170/97 97/142/79 96/141/78 
f 96/141/78 114/169/96 115/170/97 
f 116/171/98 98/143/80 97/142/79 
f 97/142/79 115/170/97 116/171/98 
f 117/172/99 99/144/81 98/143/80 
f 98/143/80 116/171/98 117/172/99 
f 118/173/100 100/146/82 99/148/81 
f 99/148/81 117/174/99 118/173/100 
f 119/175/101 101/149/83 100/146/82 
f 100/146/82 118/173/100 119/175/101 
f 120/176/102 102/150/84 101/149/83 
f 101/149/83 119/175/101 120/176/102 
f 121/177/103 103/151/85 102/150/84 
f 102/150/84 120/176/102 121/177/103 
f 122/178/104 104/153/86 103/155/85 
f 103/155/85 121/179/103 122/178/104 
f 123/180/105 105/156/87 104/153/86 
f 104/153/86 122/178/104 123/180/105 
f 124/181/106 106/157/88 105/156/87 
f 105/156/87 123/180/105 124/181/106 
f 125/182/107 107/158/89 106/157/88 
f 106/157/88 124/181/106 125/182/107 
f 126/183/108 108/159/90 107/158/89 
f 107/158/89 125/182/107 126/183/108 
f 127/184/109 109/161/91 108/163/90 
f 108/163/90 126/185/108 127/184/109 
f 111/165/93 93/135/75 109/161/91 
f 109/161/91 127/184/109 111/165/93 
# 162 faces

